<svg xmlns="http://www.w3.org/2000/svg" width="229" height="184" fill="none">
  <path fill="#00031A"
    d="m37.888 48.284-3.289-.717-.749-3.28a.254.254 0 0 0-.406-.142.26.26 0 0 0-.092.142l-.748 3.295-3.289.78a.26.26 0 0 0-.198.253.25.25 0 0 0 .201.244l3.289.717.745 3.28a.26.26 0 0 0 .25.197.254.254 0 0 0 .248-.197l.752-3.295 3.289-.78a.254.254 0 0 0 0-.497h-.003Zm110.441-32.146-3.289-.718-.748-3.28a.254.254 0 0 0-.407-.142.259.259 0 0 0-.092.143l-.748 3.295-3.289.779a.263.263 0 0 0-.198.253.253.253 0 0 0 .201.244l3.289.718.745 3.28a.259.259 0 0 0 .41.142.26.26 0 0 0 .089-.143l.751-3.295 3.289-.779a.25.25 0 0 0 .147-.087.25.25 0 0 0 .058-.162.25.25 0 0 0-.058-.16.25.25 0 0 0-.147-.088h-.003ZM43.861 34.198l-1.701-.37-.384-1.698a.133.133 0 0 0-.26 0l-.386 1.707-1.702.401a.133.133 0 0 0-.072.212.13.13 0 0 0 .075.045l1.702.371.383 1.697a.132.132 0 0 0 .13.104.133.133 0 0 0 .13-.104l.387-1.706 1.701-.402a.137.137 0 0 0 .102-.13.13.13 0 0 0-.105-.127ZM183.38 179.034l3.289-.718.745-3.279a.264.264 0 0 1 .091-.142.254.254 0 0 1 .407.142l.752 3.295 3.288.779c.058.011.11.042.148.087a.254.254 0 0 1-.148.411l-3.288.717-.749 3.279a.254.254 0 0 1-.407.142.264.264 0 0 1-.091-.142l-.748-3.295-3.289-.779a.259.259 0 0 1-.198-.253.25.25 0 0 1 .198-.244Zm-5.974-14.086 1.702-.371.383-1.697a.133.133 0 0 1 .13-.104.131.131 0 0 1 .13.104l.387 1.706 1.701.402a.135.135 0 0 1 .073.048.135.135 0 0 1 .03.082.135.135 0 0 1-.03.082.136.136 0 0 1-.076.045l-1.701.371-.384 1.697a.135.135 0 0 1-.046.075.134.134 0 0 1-.214-.075l-.386-1.707-1.702-.402a.128.128 0 0 1-.073-.047.128.128 0 0 1-.029-.082c0-.03.011-.059.03-.083a.131.131 0 0 1 .075-.044ZM170.08 61.399l-1.702-.37-.383-1.698a.134.134 0 0 0-.214-.075.133.133 0 0 0-.046.075l-.387 1.706-1.701.402a.13.13 0 0 0-.074.047.131.131 0 0 0-.029.083c.001.03.011.06.03.082.02.023.046.04.076.045l1.701.37.384 1.698a.133.133 0 0 0 .26 0l.386-1.706 1.702-.402a.138.138 0 0 0 .073-.048.143.143 0 0 0 .029-.082.13.13 0 0 0-.105-.127ZM66.04 177.488l-3.29-.717-.748-3.28a.253.253 0 0 0-.407-.141.254.254 0 0 0-.091.141l-.749 3.295-3.288.779a.261.261 0 0 0-.198.254.25.25 0 0 0 .201.244l3.288.717.746 3.28a.26.26 0 0 0 .25.198.254.254 0 0 0 .248-.198l.752-3.295 3.288-.779a.25.25 0 0 0 .148-.088.251.251 0 0 0 0-.322.25.25 0 0 0-.148-.088h-.003Z" />
  <path fill="#23AA49"
    d="M176.465 36.455s1.744-4.42-1.331-11.258a.51.51 0 0 0-.502-.305.52.52 0 0 0-.463.36c-.495 1.562-1.37 4.134-2.066 5.163l4.362 6.04Zm-6.707 3.14s-4.523-1.49-7.802-8.231a.511.511 0 0 1 .355-.733.518.518 0 0 1 .307.028c1.515.618 4.052 1.595 5.29 1.719l1.85 7.217Z" />
  <path fill="#00031A"
    d="M173.792 31.392a69.128 69.128 0 0 0-1.287-1.608l-5.333 2.498c.13.692.269 1.366.411 2.015 2.184 9.873 5.795 14.596 8.597 16.85l5.096-2.387c.046-3.589-1.29-9.375-7.484-17.368Z" />
  <path fill="#fff" d="M176.146 46.81a2.344 2.344 0 1 0 .002-4.689 2.344 2.344 0 0 0-.002 4.689Z" />
  <path fill="#23AA49"
    d="m176.178 51.146 5.095-2.386c-.043 2.933-1.008 4.399-1.008 4.399l-.044.018s-1.754-.188-4.043-2.03Zm-3.016-13.328a.635.635 0 0 1-.817-.25l-1.94-3.305a12.843 12.843 0 0 1-1.002-2.136l-1.296-3.604a.62.62 0 0 1 .328-.785.618.618 0 0 1 .813.254l1.94 3.3c.4.68.735 1.395 1.002 2.137l1.3 3.604a.62.62 0 0 1-.328.785Z" />
  <path fill="#00031A"
    d="M169.172 26.248c-.04-.086-3.945-8.772-9.86-10.138l.282-1.206c6.518 1.509 10.54 10.463 10.71 10.843l-1.132.501Zm-3.357.841c0-.03-1.414-3.14-4.377-4.667l.566-1.098c3.363 1.734 4.882 5.125 4.95 5.255l-1.139.51Z" />
  <path fill="#23AA49"
    d="m68.07 55.907 9.943 48.176 59.706-12.302-9.958-48.177a5.296 5.296 0 0 0-6.261-4.117L72.188 49.653a5.298 5.298 0 0 0-4.133 4.188 5.287 5.287 0 0 0 .015 2.066Z" />
  <path fill="#00031A"
    d="m70.667 64.367 10.54 48.049 59.536-13.038-10.54-48.05a5.307 5.307 0 0 0-6.314-4.04L74.701 58.062a5.3 5.3 0 0 0-3.324 2.318 5.291 5.291 0 0 0-.71 3.988Z" />
  <path fill="#23AA49"
    d="M172.727 121.674c-2.697 32.146-30.973 56.03-63.149 53.332a58.456 58.456 0 0 1-39.769-20.493 58.38 58.38 0 0 1-13.608-42.591c2.698-32.147 30.973-56.031 63.15-53.333a58.43 58.43 0 0 1 39.784 20.48 58.33 58.33 0 0 1 13.592 42.605Z" />
  <path fill="#00031A"
    d="M114.569 176.156a60.67 60.67 0 0 1-5.067-.213 59.481 59.481 0 0 1-32.095-12.714 59.396 59.396 0 0 1-19.61-28.391 59.35 59.35 0 0 1-.512-34.492 59.392 59.392 0 0 1 18.759-28.96 59.49 59.49 0 0 1 65.657-7.41 59.418 59.418 0 0 1 24.751 24.05 59.353 59.353 0 0 1 7.201 33.737 59.332 59.332 0 0 1-18.94 38.699 59.43 59.43 0 0 1-40.147 15.703l.003-.009Zm-.204-116.84a57.567 57.567 0 0 0-38.884 15.213 57.475 57.475 0 0 0-18.348 37.479c-1.698 20.222 7.116 39.423 23.564 51.36a57.58 57.58 0 0 0 57.758 5.704 57.523 57.523 0 0 0 23.102-19.223 57.457 57.457 0 0 0 10.246-28.24 57.392 57.392 0 0 0-13.369-41.938 57.457 57.457 0 0 0-17.57-13.977 57.5 57.5 0 0 0-21.59-6.18 58.526 58.526 0 0 0-4.909-.207v.009Z" />
  <path fill="#fff"
    d="M89.684 58.15a26.185 26.185 0 0 0-5.93 5.295c-.409.483-.817.996-1.216 1.546l-.037.046a26.58 26.58 0 0 0-2.03 3.274c-.16.309-.31.618-.47.927a24.5 24.5 0 0 0-2.16 7.187 23.128 23.128 0 0 0-.204 2.015 28.912 28.912 0 0 0 .765 8.377L65.099 92.71a39.632 39.632 0 0 1-2.41-14.506c0-.674.044-1.363.096-2.062a33.833 33.833 0 0 1 1.816-8.747 32.028 32.028 0 0 1 2.169-4.81 32.468 32.468 0 0 1 2.784-4.188l.127-.158c.462-.587.954-1.17 1.475-1.746a40.353 40.353 0 0 1 8.826-7.24l9.702 8.897Z" />
  <path fill="#00031A"
    d="m64.614 93.96-.362-.878a40.212 40.212 0 0 1-2.475-14.88c0-.708.047-1.419.1-2.114.218-3.011.828-5.98 1.812-8.834l.053-.155c.269-.751.535-1.428.816-2.068a32.674 32.674 0 0 1 4.27-7.187l.139-.173c.454-.58.965-1.183 1.506-1.783a41.446 41.446 0 0 1 9.027-7.419l.597-.367 11.137 10.2-1.073.637a25.643 25.643 0 0 0-5.692 5.094c-.362.43-.693.84-1 1.252v.021l-.225.288a25.486 25.486 0 0 0-1.95 3.137c-.16.31-.309.618-.454.909a23.734 23.734 0 0 0-2.079 6.92 21.174 21.174 0 0 0-.195 1.939c-.15 2.726.1 5.46.74 8.114l.176.744-14.868 6.603Zm.903-26.332-.03.092a33.084 33.084 0 0 0-1.767 8.516c-.05.658-.08 1.335-.093 2.01a40.005 40.005 0 0 0 2.014 13.238l11.688-5.187a29.646 29.646 0 0 1-.62-7.891c.041-.714.112-1.419.211-2.096a25.474 25.474 0 0 1 2.24-7.458c.152-.31.31-.656.486-.98a27.642 27.642 0 0 1 2.103-3.382l.037-.05c.387-.53.799-1.056 1.26-1.6a28.93 28.93 0 0 1 5.141-4.807l-8.31-7.61a39.174 39.174 0 0 0-8.043 6.698 32.513 32.513 0 0 0-1.435 1.697l-.12.149a31.835 31.835 0 0 0-2.701 4.077c-.491.882-.936 1.789-1.334 2.717a45.835 45.835 0 0 0-.727 1.867Z" />
  <path fill="#fff"
    d="m143.556 77.213-14.49-1.215a28.75 28.75 0 0 0-2.073-8.26 24.635 24.635 0 0 0-3.66-6.099 19.491 19.491 0 0 0-1.296-1.464 26.155 26.155 0 0 0-3.623-3.153 29.218 29.218 0 0 0-1.642-1.1 26.626 26.626 0 0 0-7.784-3.32l6.249-11.572a40.285 40.285 0 0 1 11.137 4.182c.718.412 1.407.836 2.067 1.273a31.716 31.716 0 0 1 7.471 6.9 34.081 34.081 0 0 1 4.526 7.727c.268.64.515 1.274.742 1.9a39.655 39.655 0 0 1 2.376 14.2Z" />
  <path fill="#00031A"
    d="m144.428 78.217-16.204-1.363-.08-.763a27.984 27.984 0 0 0-2.005-7.994 23.828 23.828 0 0 0-3.524-5.873 23.64 23.64 0 0 0-1.237-1.409 25.33 25.33 0 0 0-3.499-3.045 26.975 26.975 0 0 0-1.59-1.063 25.847 25.847 0 0 0-7.48-3.2l-1.219-.253 7.174-13.29.684.15a41.47 41.47 0 0 1 11.387 4.285c.755.43 1.47.868 2.125 1.31a32.655 32.655 0 0 1 7.685 7.097 35.015 35.015 0 0 1 4.64 7.944c.276.655.532 1.31.761 1.95a40.225 40.225 0 0 1 2.429 14.56l-.047.957Zm-14.54-3.09 12.765 1.078a40.326 40.326 0 0 0-2.333-12.87 33.046 33.046 0 0 0-.727-1.855 33.16 33.16 0 0 0-4.399-7.52 30.859 30.859 0 0 0-7.255-6.698 30.053 30.053 0 0 0-2.01-1.237 39.177 39.177 0 0 0-10.209-3.926l-5.352 9.913a29.359 29.359 0 0 1 8.591 4.265 27.21 27.21 0 0 1 3.749 3.268c.464.479.928.995 1.346 1.52a25.81 25.81 0 0 1 2.942 4.489c.325.633.619 1.236.854 1.854a29.457 29.457 0 0 1 2.051 7.73l-.013-.012Z" />
  <path fill="#fff"
    d="M140.489 71.924c-3.155-1.063-7.839-1.895-12.028.31 0 0-7.879 6.939-7.969 9.89 0 0 .421 4.223 6.061 1.747 0 0-2.785 12.951 7.829 13.996 0 0 7.734 1.236 9.677-8.633.062-.316.093-.637.09-.959l.025-11.183a5.417 5.417 0 0 0-3.685-5.168Z" />
  <path fill="#00031A"
    d="M135.122 98.8a6.706 6.706 0 0 1-.85-.046c-3.013-.31-5.324-1.52-6.862-3.629-2.326-3.184-2.258-7.554-2.014-9.891-1.624.464-2.973.39-4.021-.223-1.609-.927-1.807-2.763-1.816-2.84v-.121c.099-3.177 6.917-9.34 8.281-10.543l.084-.075.099-.052c4.47-2.343 9.404-1.487 12.758-.355a6.33 6.33 0 0 1 4.315 6.028l-.025 11.182c.002.38-.034.76-.105 1.135-1.695 8.59-7.573 9.43-9.844 9.43Zm-7.288-16.527-.384 1.774c0 .059-1.29 6.238 1.464 10.002 1.215 1.663 3.093 2.63 5.55 2.872h.058c.276.04 6.865.927 8.619-7.898.05-.256.074-.517.071-.778l.025-11.184a4.478 4.478 0 0 0-3.06-4.256c-2.982-1.008-7.338-1.784-11.202.188-3.093 2.745-7.402 7.283-7.566 9.066a2.046 2.046 0 0 0 .909 1.379c.811.464 2.141.31 3.849-.436l1.667-.73ZM141.184 63.019c-3.286-.142-9.544.269-14.191 4.72a22.478 22.478 0 0 0-.823-1.771c4.724-4.238 10.642-4.912 14.271-4.85.27.64.518 1.274.743 1.9Zm-5.269-9.635c-2.902.232-8.813 1.561-12.581 8.256a19.728 19.728 0 0 0-1.297-1.465 17.606 17.606 0 0 1 12.48-8.457 33.16 33.16 0 0 1 1.398 1.666Zm-7.471-6.899c-2.605.618-8.352 2.872-10.029 10.537a29.603 29.603 0 0 0-1.643-1.1c1.742-6.689 6.413-9.526 9.59-10.71a31.21 31.21 0 0 1 2.082 1.273ZM77.839 76.44a23.131 23.131 0 0 0-.204 2.015c-6.12-3.675-12.374-1.459-14.936-.235 0-.673.044-1.363.096-2.061 3.153-1.31 9.09-2.89 15.044.281ZM80 69.253a25.244 25.244 0 0 0-.783 1.83c-4.81-4.97-11.756-4.237-14.605-3.675.238-.668.498-1.338.792-2.009 3.505-.507 9.81-.6 14.596 3.854Zm3.755-5.808a26.15 26.15 0 0 0-1.216 1.546c-3.56-5.898-9.958-6.698-12.856-6.738a33.26 33.26 0 0 1 1.475-1.747c3.499.328 9.101 1.71 12.597 6.94Z" />
  <path fill="#fff"
    d="M66.28 86.727c2.632-2.04 6.784-4.362 11.462-3.66 0 0 9.72 3.972 10.771 6.72 0 0 .987 4.126-5.15 3.638 0 0 6.889 11.316-2.803 15.786 0 0-6.88 3.709-11.979-4.983a5.318 5.318 0 0 1-.399-.875L64.49 92.798a5.414 5.414 0 0 1 1.79-6.071Z" />
  <path fill="#00031A"
    d="M77.01 110.905c-2.69 0-6.276-1.169-9.23-6.21a5.886 5.886 0 0 1-.474-1.036l-3.694-10.555a6.335 6.335 0 0 1 2.098-7.11c2.784-2.163 7.18-4.593 12.17-3.845h.108l.105.043c1.686.69 10.15 4.275 11.286 7.249l.037.114c.018.074.427 1.855-.783 3.277-.792.927-2.042 1.434-3.728 1.545.996 2.118 2.494 6.222 1.343 9.993-.761 2.498-2.543 4.408-5.29 5.679a9.433 9.433 0 0 1-3.948.856ZM66.86 87.459a4.488 4.488 0 0 0-1.484 5.033l3.696 10.555c.081.246.185.484.31.711 4.56 7.777 10.49 4.767 10.74 4.637l.04-.013c2.256-1.038 3.713-2.565 4.304-4.537 1.368-4.473-1.871-9.87-1.906-9.922l-.928-1.546 1.81.145c1.856.149 3.165-.145 3.78-.846a2.06 2.06 0 0 0 .406-1.602c-.746-1.635-6.296-4.51-10.123-6.086-4.3-.6-8.157 1.564-10.648 3.493l.004-.022Zm46.166-63.282 3.211-.618a3.148 3.148 0 0 1 3.691 2.491l1.423 7.35a3.145 3.145 0 0 1-2.497 3.685l-3.211.618-2.617-13.526Zm-41.349 7.981-3.21.618a3.15 3.15 0 0 0-2.488 2.46 3.144 3.144 0 0 0-.006 1.228l1.42 7.347a3.149 3.149 0 0 0 3.69 2.495l3.211-.618-2.617-13.53Z" />
  <path fill="#fff"
    d="M93.75 58.96c13.215 0 23.928-10.704 23.928-23.909 0-13.204-10.713-23.908-23.929-23.908-13.215 0-23.929 10.704-23.929 23.908 0 13.205 10.714 23.91 23.93 23.91Z" />
  <path fill="#00031A"
    d="M93.698 59.897a24.915 24.915 0 0 1-17.18-6.868 24.87 24.87 0 0 1-1.657-34.292 24.917 24.917 0 0 1 34.201-3.304 24.878 24.878 0 0 1 9.278 15.997 24.86 24.86 0 0 1-4.329 17.977 24.906 24.906 0 0 1-20.313 10.49Zm.1-47.833a23.045 23.045 0 0 0-17.763 8.348 23.004 23.004 0 0 0-4.867 19 22.969 22.969 0 0 0 5.849 11.394 23.011 23.011 0 0 0 34.447-1.128 22.967 22.967 0 0 0 3.094-24.4 22.98 22.98 0 0 0-8.461-9.616 23.01 23.01 0 0 0-12.3-3.598Z" />
  <path fill="#00031A"
    d="m98.956 19.765-15.585 3.01c-5.391 1.042-8.917 6.253-7.875 11.64l1.525 7.878c1.042 5.387 6.257 8.91 11.648 7.869l15.585-3.01c5.392-1.041 8.918-6.253 7.875-11.64l-1.524-7.878c-1.042-5.387-6.257-8.91-11.649-7.869Z" />
  <path fill="#fff"
    d="M105.786 32.684a2.331 2.331 0 1 0 0-4.661 2.331 2.331 0 1 0 0 4.66ZM102.178 27.825a1.521 1.521 0 1 0 .002-3.043 1.521 1.521 0 0 0-.002 3.043ZM132.575 129.247c-5.12.439-9.643-2.581-10.704-6.912a8.21 8.21 0 0 1 .65-5.653c1.476-2.958 4.656-5.153 8.501-5.484 3.632-.309 6.964 1.119 8.972 3.521.391.468.732.976 1.017 1.515.517.966.832 2.027.928 3.118.421 4.983-3.771 9.413-9.364 9.895Z" />
  <path fill="#00031A"
    d="M131.61 130.214c-5.064 0-9.537-3.156-10.639-7.659a9.098 9.098 0 0 1-.229-1.382 9.266 9.266 0 0 1 .947-4.905c1.674-3.351 5.219-5.648 9.253-5.994 3.83-.327 7.477 1.113 9.76 3.852a9.496 9.496 0 0 1 1.126 1.675 9.008 9.008 0 0 1 1.027 3.471c.474 5.484-4.102 10.374-10.209 10.899-.343.031-.693.043-1.036.043Zm.402-18.122c-.309 0-.618 0-.928.04-3.403.29-6.363 2.198-7.734 4.973a7.305 7.305 0 0 0-.578 5.017c.965 3.935 5.144 6.602 9.723 6.21 5.08-.439 8.897-4.426 8.51-8.89a7.225 7.225 0 0 0-.816-2.782 7.804 7.804 0 0 0-.91-1.354c-1.717-2.049-4.387-3.214-7.267-3.214Z" />
  <path fill="#00031A"
    d="M172.727 121.674c-2.698 32.146-30.973 56.03-63.15 53.332A58.219 58.219 0 0 1 80.16 164.11c25.368 7.947 83.527 3.311 92.072-56.411.723 4.622.89 9.314.495 13.975Zm-32.74-6.955c-9.386-.547-15.05 3.879-18.119 7.616a8.204 8.204 0 0 1 .65-5.653c1.475-2.958 4.655-5.153 8.501-5.484 3.632-.309 6.963 1.119 8.968 3.521Z" />
  <path fill="#fff"
    d="M105.77 89.691c-3.879.334-7.304-1.953-8.108-5.233a6.224 6.224 0 0 1 .492-4.284c1.12-2.238 3.527-3.9 6.441-4.151 2.75-.235 5.259.847 6.79 2.664.297.355.557.74.774 1.15.389.732.625 1.535.696 2.361.328 3.775-2.85 7.128-7.085 7.493Z" />
  <path fill="#00031A"
    d="M105.039 90.65c-3.938 0-7.424-2.473-8.278-5.972a7.104 7.104 0 0 1 .563-4.915c1.3-2.609 4.056-4.395 7.189-4.664 2.973-.254 5.807.865 7.586 2.995.338.404.632.842.879 1.307.448.842.721 1.767.801 2.717.371 4.278-3.187 8.09-7.929 8.497a8.995 8.995 0 0 1-.811.034Zm.31-13.734c-.223 0-.446 0-.672.031-2.493.213-4.671 1.61-5.686 3.641a5.363 5.363 0 0 0-.553 2.85c.023.269.068.536.133.798.702 2.871 3.765 4.822 7.115 4.531 3.712-.31 6.521-3.23 6.24-6.491a5.193 5.193 0 0 0-.594-2.01 5.425 5.425 0 0 0-.662-.985 6.882 6.882 0 0 0-5.327-2.365h.006Z" />
  <path fill="#00031A"
    d="M111.385 78.687c-7.115-.414-11.397 2.94-13.723 5.771a6.224 6.224 0 0 1 .492-4.284c1.12-2.238 3.527-3.9 6.441-4.151 2.75-.235 5.265.847 6.79 2.664Z" />
  <path fill="#fff"
    d="M125.444 154.129c-1.921.164-3.62-.967-4.022-2.593a3.087 3.087 0 0 1 .232-2.12 4.048 4.048 0 0 1 3.087-2.05 4.065 4.065 0 0 1 1.892.238 4.065 4.065 0 0 1 1.573 1.076 3.17 3.17 0 0 1 .727 1.737c.18 1.858-1.392 3.515-3.489 3.712Z" />
  <path fill="#00031A"
    d="M125.084 155.057c-2.166 0-4.078-1.367-4.557-3.317a4.058 4.058 0 0 1 .315-2.766 4.988 4.988 0 0 1 8.096-.928 4.032 4.032 0 0 1 .941 2.251c.204 2.377-1.748 4.491-4.353 4.716-.148.044-.297.044-.442.044Zm.139-6.801h-.282a2.98 2.98 0 0 0-2.437 1.546c-.182.359-.26.761-.226 1.162.01.104.027.208.052.309.31 1.203 1.6 2.013 3.035 1.892 1.587-.136 2.785-1.351 2.664-2.708a2.146 2.146 0 0 0-.241-.816 2.42 2.42 0 0 0-.273-.408 3.004 3.004 0 0 0-2.292-.977Z" />
  <path fill="#00031A"
    d="M128.224 148.665c-3.52-.208-5.646 1.455-6.806 2.856a3.09 3.09 0 0 1 .232-2.121 4.053 4.053 0 0 1 3.087-2.049 4.054 4.054 0 0 1 3.465 1.314h.022Z" />
  <path fill="#fff"
    d="M86.805 148.532c-3.929.337-7.4-1.979-8.214-5.305a6.342 6.342 0 0 1 .498-4.352c1.133-2.269 3.573-3.953 6.525-4.207 2.784-.238 5.346.86 6.883 2.702.3.359.563.749.783 1.162.393.743.633 1.558.705 2.396.331 3.836-2.886 7.236-7.18 7.604Z" />
  <path fill="#00031A"
    d="M86.063 149.493c-3.985 0-7.505-2.491-8.378-6.043a7.435 7.435 0 0 1-.179-1.094 7.291 7.291 0 0 1 .749-3.879c1.318-2.64 4.105-4.448 7.276-4.72 3.01-.26 5.878.877 7.675 3.032.342.409.641.852.89 1.323.453.852.729 1.787.811 2.748.375 4.327-3.226 8.185-8.024 8.596-.276.037-.535.037-.82.037Zm.31-13.91c-.224 0-.453 0-.681.031-2.53.217-4.743 1.635-5.773 3.709a5.457 5.457 0 0 0-.56 2.894c.023.274.068.545.133.813.715 2.914 3.824 4.893 7.233 4.602 3.78-.328 6.623-3.283 6.336-6.593a5.27 5.27 0 0 0-.62-2.04 5.727 5.727 0 0 0-.67-1.002 6.995 6.995 0 0 0-5.402-2.414h.003Z" />
  <path fill="#00031A"
    d="M92.497 137.382c-7.205-.42-11.551 2.977-13.906 5.845a6.342 6.342 0 0 1 .498-4.352c1.133-2.269 3.573-3.953 6.525-4.207 2.787-.225 5.346.872 6.883 2.714Z" />
  <path fill="#fff"
    d="M94.282 111.087c-2.255.195-4.248-1.134-4.715-3.045a3.648 3.648 0 0 1 .285-2.488 4.768 4.768 0 0 1 7.697-.865c.171.206.32.43.445.667.227.426.366.893.409 1.373.188 2.194-1.659 4.148-4.121 4.358Z" />
  <path fill="#00031A"
    d="M93.854 112.033c-2.475 0-4.64-1.546-5.191-3.768a4.568 4.568 0 0 1 .359-3.125 5.689 5.689 0 0 1 4.348-2.909 5.696 5.696 0 0 1 4.89 1.864c.214.256.4.534.556.829.29.535.468 1.122.526 1.728.232 2.698-1.995 5.103-4.968 5.359a5.883 5.883 0 0 1-.52.022Zm.176-7.987h-.355a3.656 3.656 0 0 0-2.992 1.907 2.67 2.67 0 0 0-.281 1.45c.01.136.032.272.065.405.365 1.486 1.97 2.491 3.734 2.339 1.952-.166 3.421-1.672 3.276-3.353a2.658 2.658 0 0 0-.31-1.02 2.918 2.918 0 0 0-.34-.504 3.62 3.62 0 0 0-2.797-1.215v-.009Z" />
  <path fill="#00031A"
    d="M97.549 104.689c-4.136-.241-6.63 1.709-7.982 3.353a3.648 3.648 0 0 1 .285-2.488 4.768 4.768 0 0 1 7.697-.865Z" />
  <path fill="#fff"
    d="M149.65 104.602c-1.816.155-3.421-.927-3.799-2.454a2.932 2.932 0 0 1 .232-2.006 3.845 3.845 0 0 1 6.187-.696c.139.167.26.347.362.538.183.343.295.72.328 1.107.161 1.768-1.333 3.338-3.31 3.511Z" />
  <path fill="#00031A"
    d="M149.303 105.542c-2.066 0-3.898-1.308-4.356-3.175a3.822 3.822 0 0 1 .31-2.636 4.768 4.768 0 0 1 7.734-.878 3.898 3.898 0 0 1 .9 2.157c.195 2.275-1.674 4.3-4.164 4.513a4.426 4.426 0 0 1-.424.019Zm.133-6.433a2.508 2.508 0 0 0-.263 0 2.76 2.76 0 0 0-2.264 1.435 1.97 1.97 0 0 0-.208 1.072c.009.104.024.208.047.309.275 1.113 1.485 1.855 2.818 1.753 1.473-.127 2.583-1.236 2.475-2.507a1.976 1.976 0 0 0-.223-.754 2.343 2.343 0 0 0-.253-.377 2.79 2.79 0 0 0-2.129-.93Z" />
  <path fill="#00031A"
    d="M152.28 99.446c-3.329-.194-5.34 1.376-6.429 2.702a2.932 2.932 0 0 1 .232-2.006 3.845 3.845 0 0 1 6.187-.696h.01Z" />
  <path fill="#23AA49"
    d="M193.201 80.09c.532-.929 1.447-1.577 2.744-1.944a19.326 19.326 0 0 1 5.089-.547c2.093 0 3.772.216 5.036.646 1.265.43 2.163 1.13 2.695 2.096.479.812.801 1.708.946 2.64.119 1.159.17 2.324.152 3.49v55.424c0 2.59-.317 4.501-.95 5.731a4.678 4.678 0 0 1-2.892 2.442 16.715 16.715 0 0 1-4.839.599c-1.93 0-3.459-.166-4.587-.5a7.83 7.83 0 0 1-2.596-1.196 3.888 3.888 0 0 1-1.296-1.994c-.398-1.129-.598-2.857-.6-5.184v-12.16h-27.035c-4.657 0-7.418-1.262-8.282-3.786a14.838 14.838 0 0 1-.498-4.288 19.45 19.45 0 0 1 .31-3.987l8.281-33.383c.4-1.527.75-2.69 1.049-3.49a5.557 5.557 0 0 1 1.782-2.3 5.262 5.262 0 0 1 3.443-1.097c1.558.021 3.106.255 4.6.696 4.655 1.261 6.983 3.388 6.985 6.38a16.981 16.981 0 0 1-.699 4.185.752.752 0 0 0-.099.31l-6.085 24.322h16.26v-27.2c-.021-1.136.03-2.272.152-3.4a7.1 7.1 0 0 1 .934-2.504Z" />
  <path fill="#00031A"
    d="M201.18 151.595c-2.042 0-3.629-.176-4.851-.538a8.66 8.66 0 0 1-2.902-1.354 4.781 4.781 0 0 1-1.608-2.436c-.433-1.236-.647-3.029-.647-5.474V130.56h-26.107c-5.076 0-8.157-1.486-9.16-4.417-.371-1.18-.547-2.673-.547-4.584a20.012 20.012 0 0 1 .309-4.197l8.297-33.398c.415-1.59.767-2.758 1.08-3.592a6.507 6.507 0 0 1 2.079-2.686 6.188 6.188 0 0 1 4.021-1.305 18.2 18.2 0 0 1 4.839.733c5.082 1.379 7.662 3.827 7.662 7.273a17.63 17.63 0 0 1-.73 4.426l-.024.09-.044.083-.024.102-5.798 23.183h14.144V85.997a28.45 28.45 0 0 1 .158-3.514 7.955 7.955 0 0 1 1.067-2.847c.653-1.143 1.763-1.944 3.295-2.377a20.375 20.375 0 0 1 5.342-.58c2.185 0 3.982.234 5.337.695 1.482.51 2.561 1.357 3.208 2.522a8.477 8.477 0 0 1 1.055 2.976c.123 1.198.175 2.401.158 3.605v55.418c0 2.782-.344 4.779-1.052 6.154a5.612 5.612 0 0 1-3.446 2.906 17.682 17.682 0 0 1-5.111.64Zm-30.03-73.368a4.332 4.332 0 0 0-2.855.887 4.73 4.73 0 0 0-1.513 1.9c-.287.761-.618 1.905-1.021 3.4l-8.263 33.381a18.764 18.764 0 0 0-.272 3.764c-.044 1.355.11 2.708.455 4.019.712 2.074 3.202 3.137 7.397 3.137h27.963v13.087c0 2.211.185 3.852.547 4.878v.037c.152.607.495 1.148.978 1.546a6.939 6.939 0 0 0 2.286 1.041c1.036.309 2.493.461 4.331.461a15.817 15.817 0 0 0 4.575-.581 3.78 3.78 0 0 0 2.342-1.978c.56-1.092.845-2.878.845-5.308V86.47a30.191 30.191 0 0 0-.142-3.375 6.719 6.719 0 0 0-.842-2.309c-.421-.76-1.135-1.304-2.181-1.663-1.163-.396-2.756-.597-4.736-.597a18.583 18.583 0 0 0-4.839.514c-1.061.309-1.778.794-2.187 1.511a6.294 6.294 0 0 0-.832 2.164 26.956 26.956 0 0 0-.142 3.264v28.128h-18.395l6.361-25.402c.026-.16.074-.316.142-.463.374-1.257.591-2.555.647-3.864 0-2.541-2.061-4.328-6.299-5.487a16.357 16.357 0 0 0-4.35-.664Z" />
  <path fill="#23AA49"
    d="M43.78 80.09c.531-.929 1.446-1.577 2.743-1.944a19.327 19.327 0 0 1 5.089-.547c2.093 0 3.772.216 5.036.646 1.265.43 2.163 1.13 2.695 2.096.48.812.8 1.708.947 2.64.118 1.159.17 2.324.151 3.49v55.424c0 2.59-.316 4.501-.95 5.731a4.687 4.687 0 0 1-2.892 2.442 16.712 16.712 0 0 1-4.838.599c-1.93 0-3.46-.166-4.588-.5a7.837 7.837 0 0 1-2.596-1.196 3.887 3.887 0 0 1-1.296-1.994c-.4-1.129-.6-2.857-.6-5.184v-12.16H15.646c-4.655 0-7.415-1.262-8.282-3.786a14.798 14.798 0 0 1-.498-4.288c-.034-1.336.07-2.672.31-3.987l8.281-33.383c.4-1.527.75-2.69 1.049-3.49.38-.91.994-1.704 1.782-2.3a5.262 5.262 0 0 1 3.443-1.097 17.06 17.06 0 0 1 4.6.696c4.655 1.261 6.984 3.388 6.986 6.38a17.015 17.015 0 0 1-.7 4.185.746.746 0 0 0-.099.31l-6.085 24.322h16.26v-27.2c-.02-1.136.03-2.272.152-3.4.15-.887.467-1.736.934-2.504Z" />
  <path fill="#00031A"
    d="M51.762 151.595c-2.042 0-3.629-.176-4.85-.538a8.655 8.655 0 0 1-2.903-1.354 4.782 4.782 0 0 1-1.608-2.436c-.433-1.236-.647-3.029-.647-5.474V130.56H15.647c-5.076 0-8.157-1.486-9.16-4.417-.37-1.18-.547-2.673-.547-4.584-.045-1.406.059-2.813.31-4.197l8.296-33.398c.415-1.59.767-2.758 1.08-3.592a6.508 6.508 0 0 1 2.079-2.686 6.19 6.19 0 0 1 4.021-1.305c1.639.025 3.266.272 4.839.733 5.082 1.379 7.662 3.827 7.662 7.273a17.67 17.67 0 0 1-.73 4.426l-.024.09-.044.083-.024.102-5.798 23.183h14.144V85.997a28.39 28.39 0 0 1 .158-3.514 7.95 7.95 0 0 1 1.067-2.847c.653-1.143 1.764-1.944 3.295-2.377a20.378 20.378 0 0 1 5.343-.58c2.184 0 3.98.234 5.336.695 1.482.51 2.561 1.357 3.208 2.522a8.48 8.48 0 0 1 1.055 2.976c.123 1.198.175 2.401.158 3.605v55.418c0 2.782-.344 4.779-1.052 6.154a5.606 5.606 0 0 1-3.446 2.906 17.677 17.677 0 0 1-5.111.64Zm-30.03-73.368a4.333 4.333 0 0 0-2.855.887 4.726 4.726 0 0 0-1.513 1.9c-.287.761-.618 1.905-1.02 3.4L8.08 117.796a18.663 18.663 0 0 0-.272 3.764c-.044 1.355.11 2.708.455 4.019.712 2.074 3.202 3.137 7.397 3.137h27.963v13.087c0 2.211.185 3.852.547 4.878v.037a2.92 2.92 0 0 0 .978 1.546 6.942 6.942 0 0 0 2.286 1.041c1.036.309 2.494.461 4.331.461a15.82 15.82 0 0 0 4.575-.581 3.778 3.778 0 0 0 2.342-1.978c.56-1.092.845-2.878.845-5.308V86.47a30.096 30.096 0 0 0-.142-3.375 6.714 6.714 0 0 0-.842-2.309c-.42-.76-1.135-1.304-2.18-1.663-1.164-.396-2.757-.597-4.737-.597a18.578 18.578 0 0 0-4.838.514c-1.062.309-1.78.794-2.188 1.511a6.298 6.298 0 0 0-.832 2.164 27.078 27.078 0 0 0-.142 3.264v28.128H25.23l6.36-25.402c.027-.16.075-.316.143-.463.374-1.257.591-2.555.647-3.864 0-2.541-2.06-4.328-6.299-5.487a16.36 16.36 0 0 0-4.35-.664Z" />
</svg>