<svg xmlns="http://www.w3.org/2000/svg" width="211" height="181" fill="none">
  <path fill="#00031A"
    d="m205.452 65.115-2.816-.61-.641-2.79a.217.217 0 0 0-.348-.12.22.22 0 0 0-.078.12l-.641 2.803-2.816.663a.224.224 0 0 0-.122.078.214.214 0 0 0 .125.345l2.816.61.638 2.79a.221.221 0 0 0 .35.12.208.208 0 0 0 .076-.12l.644-2.803 2.816-.663a.214.214 0 0 0 .126-.349.218.218 0 0 0-.126-.074h-.003ZM27.719 86.413l-2.815-.61-.641-2.79a.215.215 0 0 0-.212-.168.223.223 0 0 0-.215.168l-.64 2.803-2.816.663a.222.222 0 0 0-.17.215.212.212 0 0 0 .172.208l2.816.61.638 2.79a.22.22 0 0 0 .35.12.215.215 0 0 0 .077-.12l.643-2.803 2.816-.663a.218.218 0 0 0 .176-.212.215.215 0 0 0-.176-.211h-.003Zm163.512-32.491-1.457-.316-.329-1.443a.11.11 0 0 0-.039-.064.118.118 0 0 0-.072-.025.113.113 0 0 0-.111.089l-.331 1.451-1.457.342a.112.112 0 0 0-.062.18c.017.02.039.033.065.038l1.457.316.328 1.443a.113.113 0 0 0 .111.089.118.118 0 0 0 .072-.025.11.11 0 0 0 .039-.064l.332-1.451 1.456-.342a.118.118 0 0 0 .063-.04.118.118 0 0 0 .025-.07.107.107 0 0 0-.026-.07.11.11 0 0 0-.064-.038ZM-1.509 180.657h36.746c.466-4.832-3.362-6.502-3.362-6.502.927-1.525.493-2.503.493-2.503-.58-.805-1.19 0-1.19 0 .03-1.956-.956-2.304-.956-2.304-.694-.17-.927 1.181-.927 1.181-2.087-2.159-4.116-.978-4.116-.978.176-.478.226-.993.146-1.496-.376-.489-.781.144-.781.144.113-2.629-.843-2.734-.843-2.734-.956-.029-.781 1.985-.781 1.985-1.386-1.898-2.975-1.985-2.975-1.985-2.492-.029-3.74 2.561-3.74 2.561.175-3.079-.956-3.079-.956-3.079-1.277.263-.463 3.597-.463 3.597-1.799-1.409-3.362-1.052-3.362-1.052-3.017.526-3.856 4.733-3.856 4.733-.84-1.181-1.42-.891-1.42-.891-.81.431-.405 1.667-.405 1.667-2.668.662-.58 1.18-.58 1.18-.366.344-.661.755-.87 1.21-4.881-.084-5.803 5.266-5.803 5.266Zm160.539 0h52.138c.66-6.857-4.768-9.223-4.768-9.223 1.325-2.164.7-3.553.7-3.553-.824-1.144-1.688 0-1.688 0 .043-2.776-1.356-3.265-1.356-3.265-.988-.245-1.324 1.675-1.324 1.675-2.962-3.064-5.828-1.389-5.828-1.389.411-1.314.204-2.124.204-2.124-.529-.692-1.109.205-1.109.205.164-3.716-1.192-3.879-1.192-3.879-1.357-.039-1.11 2.816-1.11 2.816-1.976-2.692-4.23-2.823-4.23-2.823-3.536-.04-5.298 3.633-5.298 3.633.246-4.367-1.356-4.367-1.356-4.367-1.809.368-.657 5.101-.657 5.101-2.551-1.998-4.768-1.509-4.768-1.509-4.278.733-5.469 6.694-5.469 6.694-1.192-1.675-2.016-1.265-2.016-1.265-1.15.613-.575 2.367-.575 2.367-3.782.938-.821 1.675-.821 1.675a5.437 5.437 0 0 0-1.234 1.714c-6.927-.074-8.243 7.517-8.243 7.517Z" />
  <path fill="#23AA49"
    d="M86.337 180.074H7.76c-.99-10.334 7.189-13.904 7.189-13.904-1.984-3.261-1.06-5.351-1.06-5.351 1.24-1.722 2.543 0 2.543 0-.064-4.184 2.045-4.922 2.045-4.922 1.486-.368 1.984 2.521 1.984 2.521 4.46-4.614 8.799-2.09 8.799-2.09-.625-1.964-.31-3.2-.31-3.2.795-1.052 1.674.308 1.674.308-.249-5.598 1.796-5.846 1.796-5.846 2.045-.06 1.674 4.247 1.674 4.247 2.975-4.062 6.384-4.247 6.384-4.247 5.329-.06 7.994 5.477 7.994 5.477-.371-6.573 2.047-6.573 2.047-6.573 2.726.555.99 7.691.99 7.691 3.844-3.016 7.19-2.277 7.19-2.277 6.444 1.107 8.242 10.089 8.242 10.089 1.799-2.522 3.036-1.906 3.036-1.906 1.738.922.869 3.568.869 3.568 5.703 1.414 1.24 2.521 1.24 2.521 1.114.923 1.853 2.585 1.853 2.585 10.413-.134 12.397 11.309 12.397 11.309Z" />
  <path fill="#00031A"
    d="M87.28 180.862H7.022l-.069-.712c-.847-8.845 4.797-13.047 6.887-14.291-1.632-3.171-.739-5.258-.697-5.358l.032-.074.048-.068c.646-.894 1.353-1.089 1.835-1.094.22-.008.44.024.65.094.41-3.418 2.41-4.172 2.505-4.207l.072-.021a1.783 1.783 0 0 1 1.425.237c.537.404.94.959 1.157 1.593 2.88-2.39 5.655-2.269 7.295-1.866a5.935 5.935 0 0 1 .018-2.159l.04-.158.1-.129a1.593 1.593 0 0 1 1.361-.704c.046-.003.091-.003.136 0 .151-4.61 2.088-5.096 2.509-5.149h.071a2.005 2.005 0 0 1 1.526.626c.546.573.795 1.475.914 2.325 2.76-2.761 5.467-2.943 5.6-2.948h.132c3.372 0 5.73 1.985 7.117 3.657.138-1.872.59-3.221 1.359-4.025a2.118 2.118 0 0 1 1.475-.739h.08l.08.016a2.3 2.3 0 0 1 1.493 1.052c.89 1.39.731 3.925.471 5.692 3.264-1.856 5.91-1.396 6.207-1.336 5.268.915 7.62 6.466 8.476 9.203 1.634-1.554 2.855-1.028 3.014-.949 1.494.789 1.66 2.458 1.46 3.71 1.941.56 2.746 1.167 2.746 2.03 0 .639-.5 1.081-1.06 1.375.362.464.682.959.957 1.478 10.529.236 12.664 11.853 12.685 11.974l.15.925Zm-78.793-1.577H85.34c-.697-2.606-3.33-9.729-11.233-9.729h-.687l-.211-.473c0-.013-.686-1.507-1.643-2.298l-1.202-.994 1.523-.384a4.51 4.51 0 0 0 .821-.297 9.53 9.53 0 0 0-2.06-.694l-.827-.205.265-.805c0-.016.617-1.967-.437-2.598-.244-.042-1.023.174-2.064 1.638l-1.06 1.499-.36-1.801c-.018-.084-1.774-8.467-7.599-9.466h-.037c-.12-.023-3.057-.594-6.524 2.125l-1.812 1.401.53-2.216c.445-1.841.864-5.183.096-6.379a.752.752 0 0 0-.348-.318c-.49.197-1.459 1.485-1.218 5.729l.225 3.991-1.721-3.604c-.024-.05-2.509-5.075-7.248-5.028-.238.021-3.14.329-5.771 3.921l-1.68 2.29.244-2.822c.088-1.028-.021-2.718-.53-3.255a.383.383 0 0 0-.238-.131c-.408.194-1.271 1.38-1.112 5.019l.132 2.945-1.59-2.487a1.388 1.388 0 0 0-.264-.287 6.56 6.56 0 0 0 .331 2.519l.614 1.949-1.774-1.031c-.151-.087-3.875-2.127-7.825 1.956l-1.102 1.128-.264-1.541c-.106-.599-.445-1.606-.838-1.861a.154.154 0 0 0-.06-.031.154.154 0 0 0-.067-.006c-.214.108-1.536.91-1.486 4.152l.035 2.427-1.465-1.941c-.109-.139-.44-.45-.697-.45-.182 0-.376.2-.5.358-.111.342-.53 2.014 1.03 4.562l.466.77-.826.361c-.318.134-7.29 3.323-6.786 12.392Z" />
  <path fill="#23AA49"
    d="M204.244 180.074h-78.587c-.99-10.334 7.192-13.904 7.192-13.904-1.984-3.261-1.06-5.351-1.06-5.351 1.24-1.722 2.541 0 2.541 0-.061-4.184 2.044-4.922 2.044-4.922 1.489-.368 1.984 2.521 1.984 2.521 4.463-4.614 8.802-2.09 8.802-2.09-.62-1.97-.31-3.2-.31-3.2.795-1.052 1.672.308 1.672.308-.247-5.598 1.798-5.846 1.798-5.846 2.045-.06 1.674 4.247 1.674 4.247 2.975-4.062 6.384-4.247 6.384-4.247 5.329-.06 7.994 5.477 7.994 5.477-.371-6.573 2.045-6.573 2.045-6.573 2.728.555.99 7.691.99 7.691 3.844-3.016 7.192-2.277 7.192-2.277 6.444 1.107 8.243 10.089 8.243 10.089 1.795-2.522 3.035-1.906 3.035-1.906 1.735.922.869 3.568.869 3.568 5.7 1.414 1.239 2.521 1.239 2.521 1.116.923 1.855 2.585 1.855 2.585 10.42-.134 12.404 11.309 12.404 11.309Z" />
  <path fill="#00031A"
    d="M205.186 180.862h-80.257l-.069-.712c-.848-8.845 4.794-13.047 6.887-14.291-1.629-3.171-.737-5.258-.697-5.358l.034-.074.048-.068c.644-.894 1.354-1.089 1.833-1.094.214-.006.428.026.63.094.408-3.418 2.408-4.172 2.504-4.207l.074-.021a1.774 1.774 0 0 1 1.422.237c.538.405.942.96 1.16 1.593 2.879-2.39 5.655-2.269 7.292-1.866a5.827 5.827 0 0 1 .022-2.159l.039-.158.098-.129a1.59 1.59 0 0 1 1.362-.704c.046-.003.092-.003.137 0 .149-4.61 2.088-5.096 2.509-5.149h.071a2.01 2.01 0 0 1 1.526.626c.543.573.795 1.475.911 2.325 2.76-2.761 5.467-2.943 5.6-2.948h.153c3.37 0 5.727 1.985 7.115 3.657.138-1.872.593-3.221 1.359-4.025a2.132 2.132 0 0 1 1.475-.739h.08l.079.016a2.303 2.303 0 0 1 1.497 1.052c.89 1.39.731 3.925.471 5.692 3.261-1.856 5.907-1.393 6.204-1.336 5.271.915 7.623 6.466 8.476 9.203 1.634-1.554 2.855-1.028 3.011-.949 1.497.789 1.664 2.458 1.462 3.71 1.939.56 2.747 1.167 2.747 2.03 0 .639-.5 1.081-1.059 1.375.361.464.681.959.956 1.478 10.526.236 12.664 11.853 12.685 11.974l.153.925Zm-78.79-1.577h76.844c-.697-2.606-3.33-9.729-11.234-9.729h-.686l-.214-.473c0-.013-.686-1.507-1.643-2.298l-1.2-.994 1.518-.379c.283-.073.558-.172.821-.297a9.59 9.59 0 0 0-2.06-.694l-.827-.205.265-.805c0-.015.62-1.966-.434-2.597-.249-.043-1.023.176-2.066 1.638l-1.06 1.498-.36-1.801c-.016-.084-1.772-8.466-7.599-9.465h-.035c-.122-.024-3.059-.595-6.526 2.124l-1.802 1.415.53-2.217c.442-1.84.861-5.182.093-6.379a.754.754 0 0 0-.345-.318c-.49.197-1.459 1.486-1.221 5.729l.226 3.992-1.735-3.608c-.024-.05-2.496-5.027-7.192-5.027h-.055c-.239.021-3.139.329-5.772 3.92l-1.677 2.291.244-2.822c.087-1.028-.021-2.719-.53-3.255a.391.391 0 0 0-.241-.131c-.405.194-1.271 1.38-1.11 5.019l.13 2.945-1.589-2.487a1.338 1.338 0 0 0-.265-.287 6.509 6.509 0 0 0 .331 2.519l.612 1.948-1.772-1.03c-.154-.087-3.878-2.128-7.827 1.956l-1.092 1.128-.264-1.541c-.104-.599-.443-1.607-.837-1.862a.163.163 0 0 0-.125-.036c-.215.107-1.536.909-1.489 4.151l.038 2.427-1.468-1.94c-.108-.14-.437-.45-.694-.45-.183 0-.373.2-.498.358-.111.342-.53 2.014 1.028 4.562l.469.77-.829.36c-.308.119-7.277 3.308-6.776 12.377Zm-77.845-3.332c-1.766 1.16-2.598 3.008-2.958 4.121h-12.67c-1.006-3.156-.667-4.836-.667-4.836.858 1.478 1.804 1.88 1.804 1.88 1.038-1.88.633-6.941.633-6.941 1.894 1.746 1.714 5.642 1.714 5.642 1.343-4.754 4.418-6.202 4.466-6.223-1.984 3.223-2.074 7.972-2.074 7.972 2.436-3.852 7.082-3.418 7.082-3.418-3.385 1.12-3.52 4.522-3.52 4.522 2.307-2.537 6.19-2.719 6.19-2.719Z" />
  <path fill="#fff"
    d="m75.451 81.23 7.314-2.65.723-20.648c-8.943-6.74-3.934-11.57-3.934-11.57l.382-9.45h35.694c6.644 38.502-10.261 34.821-10.261 34.821l.427 8.022 8.677 3.09-.053 16.373H74.209l1.242-17.988Z" />
  <path fill="#00031A"
    d="M115.212 100.001h-41.85l1.324-19.336 7.294-2.645.692-19.72c-3.359-2.611-5.144-5.283-5.298-7.944a6.183 6.183 0 0 1 1.396-4.315l.4-9.923h37.131l.111.658c2.943 17.046 1.753 28.229-3.534 33.24a9.092 9.092 0 0 1-3.065 1.975 9.157 9.157 0 0 1-3.602.618l.35 6.573 8.709 3.092-.058 17.727Zm-40.15-1.577h38.566l.048-15.03-8.646-3.07-.511-9.574 1.02.22c.132.03 3.371.663 6.272-2.103 3.3-3.155 6.505-11.13 3.147-31.153h-34.26l-.36 8.998-.228.218a4.514 4.514 0 0 0-1.147 3.371c.152 2.225 1.884 4.646 5.01 7.002l.328.247-.758 21.587-7.334 2.656-1.147 16.63Z" />
  <path fill="#00031A"
    d="M95.309 38.987s7.639 4.909 20.66 0l.633 4.52s5.746-4.06 4.201-11.57c0 0-.773-4.753-8.807-5.674 0 0-3.401-6.902-10.817-3.988 0 0-5.563-3.374-10.972 1.688 0 0-4.789-.155-5.562 3.68 0 0-5.088-.593-8.211 2.914a7.83 7.83 0 0 0-1.923 5.259c0 2.976.278 8.117 5.077 10.999 0 0 5.626-3.782 7.375 3.68l2.78.769.618-4.294s4.177-1.233 4.948-7.983Z" />
  <path fill="#00031A"
    d="M113.775 55.158c-1.1 0-2.175-.324-3.09-.931a5.53 5.53 0 0 1-2.049-2.478 5.481 5.481 0 0 1-.316-3.19 5.503 5.503 0 0 1 1.522-2.828 5.575 5.575 0 0 1 2.848-1.51 5.601 5.601 0 0 1 3.214.314 5.554 5.554 0 0 1 2.496 2.033c.611.908.938 1.976.938 3.068a5.499 5.499 0 0 1-1.63 3.904 5.583 5.583 0 0 1-3.933 1.618Zm0-9.971a4.53 4.53 0 0 0-2.502.753 4.481 4.481 0 0 0-1.658 2.006 4.436 4.436 0 0 0-.256 2.583 4.46 4.46 0 0 0 1.232 2.289 4.532 4.532 0 0 0 4.907.969 4.496 4.496 0 0 0 2.021-1.647 4.445 4.445 0 0 0-.56-5.644 4.52 4.52 0 0 0-3.184-1.309Zm-12.054 9.97a5.591 5.591 0 0 1-3.09-.93 5.53 5.53 0 0 1-2.05-2.478 5.484 5.484 0 0 1-.316-3.19 5.509 5.509 0 0 1 1.522-2.828 5.576 5.576 0 0 1 2.848-1.51 5.6 5.6 0 0 1 3.214.314 5.557 5.557 0 0 1 2.497 2.033 5.494 5.494 0 0 1-.692 6.972 5.583 5.583 0 0 1-3.933 1.618Zm0-9.97c-.891 0-1.762.262-2.502.753a4.477 4.477 0 0 0-1.658 2.006 4.44 4.44 0 0 0 .976 4.872 4.513 4.513 0 0 0 2.305 1.223 4.535 4.535 0 0 0 2.602-.254 4.496 4.496 0 0 0 2.021-1.647c.494-.735.759-1.599.759-2.483a4.455 4.455 0 0 0-1.319-3.16 4.521 4.521 0 0 0-3.184-1.31Z" />
  <path fill="#00031A"
    d="M113.695 51.718c.768 0 1.391-.618 1.391-1.38 0-.762-.623-1.38-1.391-1.38s-1.39.618-1.39 1.38c0 .762.622 1.38 1.39 1.38ZM101.721 51.795c.768 0 1.39-.618 1.39-1.38 0-.763-.622-1.381-1.39-1.381-.768 0-1.391.618-1.391 1.38 0 .763.623 1.38 1.391 1.38ZM89.478 48.855l.104-1.047 7.162.696-.103 1.047-7.163-.696ZM111.21 58.439l-3.128-.242.082-1.046 1.533.118-2.754-8.177 1.003-.334 3.264 9.681Zm-2.045-13.825-.67-.815c.111-.09 2.786-2.206 8.063-1.549l-.133 1.052c-4.831-.608-7.236 1.293-7.26 1.312Zm-3.579-.121c-.151-.16-3.779-3.847-8.74-.75l-.565-.89c5.711-3.564 10.034.872 10.066.917l-.761.723Zm4.445 19.61a1.194 1.194 0 0 0 .351-.968 1.213 1.213 0 0 0-.526-.886 2.896 2.896 0 0 0-1.544-.5c-1.438-.042-3.343.879-4.238 1.354a.414.414 0 0 0-.148.13.417.417 0 0 0-.045.378.41.41 0 0 0 .113.16c1.002.868 4.04 2.396 6.037.332Z" />
  <path fill="#fff"
    d="m132.743 64.715 3.973 7.115 5.849 29.029-14.725-8.811v31.097l39.997 7.115-21.318-64.42-9.193-25.998a4.932 4.932 0 0 0-1.201-1.88 4.974 4.974 0 0 0-1.912-1.163l-.9-.302a7.098 7.098 0 0 0-5.756.581l-8.018 4.601v14.233s3.973 2.811 5.849 5.432c0 0 3.207 3.558 7.355 3.371Z" />
  <path fill="#00031A"
    d="m169.005 131.27-41.96-7.465V90.659l14.378 8.601-5.462-27.154-3.682-6.597c-4.238-.076-7.35-3.489-7.485-3.639l-.053-.068c-1.791-2.485-5.626-5.22-5.666-5.259l-.331-.236V41.224l8.402-4.827a7.884 7.884 0 0 1 6.407-.65l.906.3c.834.278 1.593.74 2.221 1.352a5.75 5.75 0 0 1 1.4 2.18l9.194 25.999 21.731 65.692Zm-40.37-8.785 38.028 6.766-20.901-63.166-9.189-25.983a4.155 4.155 0 0 0-1.01-1.577 4.2 4.2 0 0 0-1.604-.979l-.911-.3a6.301 6.301 0 0 0-5.11.526l-7.605 4.362v13.379c1.007.746 4.027 3.068 5.671 5.332.294.313 3.179 3.242 6.704 3.081l.493-.02 4.259 7.651.024.12 6.204 30.78-15.053-9.003v29.031Z" />
  <path fill="#23AA49"
    d="M108.873 82.319c-1.701 4.596-8.548 16.61-30.162-1.662a1.94 1.94 0 0 0-1.939-.334l-24.21 9.119a14.504 14.504 0 0 0-7.742 6.836L30.4 123.8l23.675 5.711-.564 50.376 89.987.187-8.394-68.832v-21.4L111 81.338a1.68 1.68 0 0 0-1.266.057 1.658 1.658 0 0 0-.861.924Z" />
  <path fill="#00031A"
    d="m144.396 180.865-91.69-.192.57-50.544-24.06-5.801 14.89-28.397a15.287 15.287 0 0 1 8.166-7.21l24.21-9.118a2.741 2.741 0 0 1 2.733.473c8.96 7.575 16.25 10.699 21.659 9.29 4.373-1.141 6.415-5.064 7.242-7.302a2.462 2.462 0 0 1 1.267-1.366 2.49 2.49 0 0 1 1.869-.093l24.633 8.676v21.922l8.511 69.662Zm-90.082-1.764 88.289.184-8.294-67.985V90.396l-23.574-8.314a.881.881 0 0 0-1.115.526c-.932 2.527-3.258 6.96-8.33 8.283-5.941 1.548-13.71-1.686-23.092-9.616a1.152 1.152 0 0 0-1.142-.197L52.85 90.196a13.69 13.69 0 0 0-7.321 6.463l-13.954 26.612 23.31 5.622-.57 50.208Z" />
  <path fill="#00031A" d="m135.983 83.807-24.462 14.149.628 71.08 24.464-13.4-.63-71.829Z" />
  <path fill="#fff" d="m161.514 98.519-24.901-13.673v70.79l24.901 12.361V98.518Z" />
  <path fill="#00031A"
    d="m162.31 169.272-26.488-13.147V83.51l26.488 14.543v71.219Zm-24.898-14.125 23.309 11.569V98.984l-23.309-12.8v68.963Z" />
  <path fill="#00031A" d="m187.362 84.846-25.846 13.672.63 70.518 25.216-19.205V84.846Z" />
  <path fill="#fff" d="M111.521 97.956v70.041L86.43 154.7V84.846l25.091 13.11Z" />
  <path fill="#00031A"
    d="m112.316 169.312-26.681-14.138V83.539l26.681 13.936v71.837Zm-25.092-15.085 23.503 12.453V98.432l-23.503-12.28v68.075Zm37.125-110.768-6.211 1.315a4.544 4.544 0 0 0-2.586 1.57 4.485 4.485 0 0 0-1.014 2.837 4.49 4.49 0 0 0 1.013 2.838 4.546 4.546 0 0 0 2.587 1.571l6.211 1.315V43.46Z" />
  <path fill="#23AA49"
    d="M134.82 57.897h-3.727c-5.234 0-9.48-3.944-9.48-9.147 0-5.199 4.238-9.148 9.48-9.148h3.727v18.295Z" />
  <path fill="#00031A"
    d="M135.614 58.686h-4.521c-5.761 0-10.275-4.365-10.275-9.936 0-5.572 4.503-9.937 10.275-9.937h4.521v19.873Zm-4.521-18.295c-4.869 0-8.685 3.681-8.685 8.359 0 4.677 3.816 8.358 8.685 8.358h2.932V40.392h-2.932Z" />
  <path fill="#fff"
    d="M134.916 58.16c5.262 0 9.528-4.234 9.528-9.458 0-5.223-4.266-9.457-9.528-9.457-5.262 0-9.527 4.234-9.527 9.457 0 5.224 4.265 9.458 9.527 9.458Z" />
  <path fill="#00031A"
    d="M134.903 58.686c-1.991 0-3.937-.586-5.592-1.684a10.01 10.01 0 0 1-3.707-4.484 9.925 9.925 0 0 1-.573-5.773 9.972 9.972 0 0 1 2.755-5.116 10.09 10.09 0 0 1 5.154-2.734 10.134 10.134 0 0 1 5.815.569 10.05 10.05 0 0 1 4.517 3.68 9.94 9.94 0 0 1 1.697 5.55 9.954 9.954 0 0 1-2.949 7.066 10.1 10.1 0 0 1-7.117 2.926Zm0-18.913a9.053 9.053 0 0 0-5.003 1.507 8.958 8.958 0 0 0-3.317 4.012 8.88 8.88 0 0 0-.513 5.165 8.928 8.928 0 0 0 2.465 4.577 9.027 9.027 0 0 0 4.611 2.447 9.07 9.07 0 0 0 5.204-.509 8.99 8.99 0 0 0 4.041-3.292 8.89 8.89 0 0 0-1.12-11.288 9.039 9.039 0 0 0-6.368-2.619Z" />
  <path fill="#00031A"
    d="M134.901 56.627a8.025 8.025 0 0 1-4.435-1.335 7.935 7.935 0 0 1-2.94-3.557 7.865 7.865 0 0 1-.455-4.579 7.91 7.91 0 0 1 2.185-4.057 8.004 8.004 0 0 1 4.088-2.17 8.035 8.035 0 0 1 4.612.452 7.97 7.97 0 0 1 3.583 2.919 7.878 7.878 0 0 1 1.346 4.403 7.902 7.902 0 0 1-2.341 5.6 8.022 8.022 0 0 1-5.643 2.324Zm0-14.8a6.962 6.962 0 0 0-3.847 1.158 6.888 6.888 0 0 0-2.55 3.085 6.82 6.82 0 0 0-.393 3.972 6.858 6.858 0 0 0 1.895 3.519 6.943 6.943 0 0 0 3.546 1.88 6.973 6.973 0 0 0 4.001-.392 6.917 6.917 0 0 0 3.107-2.533 6.837 6.837 0 0 0 1.165-3.819 6.853 6.853 0 0 0-2.03-4.857 6.955 6.955 0 0 0-4.894-2.013Z" />
  <path fill="#23AA49"
    d="m103.975 43.46-6.211 1.314a4.545 4.545 0 0 0-2.586 1.57 4.486 4.486 0 0 0-1.014 2.837c0 1.033.358 2.035 1.013 2.838a4.546 4.546 0 0 0 2.587 1.571l6.211 1.315V43.46Z" />
  <path fill="#00031A"
    d="m104.771 55.857-7.17-1.507a5.339 5.339 0 0 1-3.04-1.845 5.27 5.27 0 0 1-1.19-3.333c0-1.214.42-2.39 1.19-3.333a5.338 5.338 0 0 1 3.04-1.846l7.17-1.506v13.37Zm-1.589-11.425-5.253 1.105a3.747 3.747 0 0 0-2.134 1.295 3.698 3.698 0 0 0 0 4.68 3.747 3.747 0 0 0 2.134 1.295l5.253 1.104v-9.479Z" />
  <path fill="#23AA49"
    d="M114.445 57.897h-3.727c-5.234 0-9.48-3.944-9.48-9.147 0-5.199 4.238-9.148 9.48-9.148h3.727v18.295Z" />
  <path fill="#00031A"
    d="M115.241 58.686h-4.521c-5.761 0-10.275-4.365-10.275-9.936 0-5.572 4.503-9.937 10.275-9.937h4.521v19.873Zm-4.521-18.295c-4.871 0-8.685 3.681-8.685 8.359 0 4.677 3.814 8.358 8.685 8.358h2.932V40.392h-2.932Z" />
  <path fill="#fff"
    d="M114.539 58.16c5.262 0 9.528-4.234 9.528-9.458 0-5.223-4.266-9.457-9.528-9.457-5.262 0-9.527 4.234-9.527 9.457 0 5.224 4.265 9.458 9.527 9.458Z" />
  <path fill="#00031A"
    d="M114.538 58.686c-1.991 0-3.937-.586-5.592-1.684a10.01 10.01 0 0 1-3.707-4.484 9.925 9.925 0 0 1-.573-5.773 9.965 9.965 0 0 1 2.755-5.116 10.087 10.087 0 0 1 5.153-2.734 10.136 10.136 0 0 1 5.816.569 10.05 10.05 0 0 1 4.517 3.68 9.94 9.94 0 0 1-1.252 12.616 10.102 10.102 0 0 1-7.117 2.926Zm0-18.913a9.053 9.053 0 0 0-5.003 1.507 8.951 8.951 0 0 0-3.317 4.012 8.88 8.88 0 0 0-.513 5.165 8.92 8.92 0 0 0 2.465 4.577 9.023 9.023 0 0 0 4.611 2.447 9.065 9.065 0 0 0 5.203-.509 8.993 8.993 0 0 0 4.042-3.292 8.89 8.89 0 0 0-1.12-11.288 9.04 9.04 0 0 0-6.368-2.619Z" />
  <path fill="#00031A"
    d="M114.538 56.627a8.025 8.025 0 0 1-4.435-1.335 7.943 7.943 0 0 1-2.941-3.557 7.873 7.873 0 0 1-.454-4.579 7.903 7.903 0 0 1 2.185-4.057 8 8 0 0 1 4.088-2.17 8.037 8.037 0 0 1 4.612.452 7.97 7.97 0 0 1 3.583 2.919 7.885 7.885 0 0 1 1.345 4.403 7.901 7.901 0 0 1-2.34 5.6 8.022 8.022 0 0 1-5.643 2.324Zm0-14.795a6.963 6.963 0 0 0-3.847 1.158 6.883 6.883 0 0 0-2.55 3.085 6.83 6.83 0 0 0 1.502 7.491 6.943 6.943 0 0 0 3.546 1.88 6.974 6.974 0 0 0 4.001-.392 6.91 6.91 0 0 0 3.106-2.532 6.838 6.838 0 0 0-.863-8.68 6.955 6.955 0 0 0-4.895-2.015v.005Z" />
  <path fill="#fff"
    d="m32.474 124.173 21.509 5.259-5.66 8.614 23.573-2.998 6.437-10.32a5.525 5.525 0 0 1 2.67-2.216c3.888-1.523 13.493-2.609 20.946.546.697.298 1.47 2.464-.434 3.461 0 0 4.45 1.638.188 4.409 0 0 2.264 2.811-.943 4.12 0 0 .755 2.248-4.527 2.998l-9.244 1.315s-5.094 8.803-18.865 11.798l-38.43 7.128c-6.217 1.157-11.126-5.183-8.4-10.849l11.18-23.265Z" />
  <path fill="#00031A"
    d="M28.252 159.21a8.575 8.575 0 0 1-4.112-1.059 8.504 8.504 0 0 1-3.088-2.897 8.412 8.412 0 0 1-.48-8.155l11.46-23.843 23.222 5.661-5.332 8.117 21.5-2.732 6.238-9.992a6.35 6.35 0 0 1 3.06-2.551c4.237-1.659 14.024-2.629 21.549.555.679.29 1.203 1.215 1.243 2.204a2.738 2.738 0 0 1-.578 1.84c.628.426 1.301 1.086 1.404 2.004.103.917-.413 1.872-1.555 2.763.326.61.663 1.544.411 2.514-.204.789-.744 1.42-1.605 1.885a2.368 2.368 0 0 1-.355 1.039c-.707 1.136-2.35 1.893-4.882 2.253l-8.863 1.254c-1.107 1.696-6.582 9.101-19.174 11.833l-38.463 7.151a8.591 8.591 0 0 1-1.6.156Zm4.673-34.116L22.009 147.79a6.841 6.841 0 0 0 .765 7.158 6.936 6.936 0 0 0 3.021 2.234 6.987 6.987 0 0 0 3.752.337l38.437-7.147c13.207-2.871 18.276-11.33 18.324-11.416l.193-.332.382-.055 9.244-1.315c2.606-.37 3.443-1.083 3.724-1.475a.734.734 0 0 0 .156-.507l-.32-.723.779-.24c.678-.278 1.078-.636 1.189-1.064.183-.7-.36-1.578-.564-1.841l-.546-.678.731-.476c.993-.647 1.534-1.273 1.484-1.72-.064-.573-1.06-1.125-1.513-1.291l-1.669-.615 1.574-.823a1.268 1.268 0 0 0 .768-1.052 1.377 1.377 0 0 0-.299-.991c-7.37-3.108-16.865-1.88-20.32-.526a4.691 4.691 0 0 0-2.285 1.898l-6.625 10.641-25.664 3.261 5.976-9.121-19.778-4.817Z" />
  <path fill="#fff" d="M94.238 125.827s4.397.026 7.589.771l-7.589-.771Z" />
  <path fill="#00031A"
    d="M101.645 127.365c-3.067-.715-7.366-.746-7.416-.749v-1.578c.182 0 4.524.037 7.763.789l-.347 1.538Z" />
  <path fill="#fff" d="M94.45 129.911a23.463 23.463 0 0 1 7.169 1.101l-7.17-1.101Z" />
  <path fill="#00031A"
    d="M101.363 131.751a22.805 22.805 0 0 0-6.886-1.052l-.045-1.577a24.064 24.064 0 0 1 7.443 1.141l-.512 1.488Z" />
  <path fill="#fff" d="M94.176 134.004s4.047-.373 6.688 1.126l-6.688-1.126Z" />
  <path fill="#00031A"
    d="M100.469 135.813c-2.384-1.354-6.182-1.025-6.22-1.022l-.147-1.578c.177-.016 4.328-.381 7.151 1.223l-.784 1.377Z" />
  <path fill="#fff" d="m62.187 116.777-8.113 12.921 8.113-12.921Z" />
  <path fill="#00031A" d="m53.398 129.296 8.115-12.921 1.349.834-8.115 12.922-1.349-.835Z" />
  <path fill="#23AA49"
    d="M141.092 16.777c.83-1.136 1.79-2.17 2.861-3.085a15.616 15.616 0 0 0 2.143-2.206c.464-.612.711-1.36.702-2.127a3.234 3.234 0 0 0-1.362-2.7c-.907-.69-2.122-1.034-3.644-1.034-2.22 0-4.02.605-5.401 1.815a2.273 2.273 0 0 1-2.734.207 2.255 2.255 0 0 1-1.026-1.784 2.24 2.24 0 0 1 .865-1.867 11.781 11.781 0 0 1 2.331-1.413c1.815-.832 3.95-1.249 6.404-1.249 2.992 0 5.376.643 7.152 1.928 1.776 1.285 2.664 3.053 2.662 5.306a7.05 7.05 0 0 1-.53 2.86 7.825 7.825 0 0 1-1.303 2.088 25.185 25.185 0 0 1-2 1.967 15.348 15.348 0 0 0-2.262 2.385 4.117 4.117 0 0 0-.742 2.464h-5.085c-.009-1.43.314-2.616.969-3.555Zm-.72 12.166a2.982 2.982 0 0 1-.903-2.206 2.923 2.923 0 0 1 .903-2.185 3.15 3.15 0 0 1 2.302-.876 3.123 3.123 0 0 1 2.262.876 2.908 2.908 0 0 1 .9 2.185 2.993 2.993 0 0 1-.9 2.206 3.075 3.075 0 0 1-2.262.894 3.133 3.133 0 0 1-2.302-.894Z" />
  <path fill="#00031A"
    d="M142.675 30.62a3.894 3.894 0 0 1-2.863-1.125 3.762 3.762 0 0 1-1.137-2.764 3.697 3.697 0 0 1 1.142-2.75 3.967 3.967 0 0 1 2.858-1.086 3.907 3.907 0 0 1 2.824 1.086 3.702 3.702 0 0 1 1.141 2.75 3.778 3.778 0 0 1-1.141 2.764 3.872 3.872 0 0 1-2.824 1.125Zm0-6.16a2.405 2.405 0 0 0-1.748.65 2.163 2.163 0 0 0-.662 1.621 2.206 2.206 0 0 0 .67 1.649 2.329 2.329 0 0 0 1.74.663 2.3 2.3 0 0 0 1.7-.663 2.22 2.22 0 0 0 .668-1.649 2.143 2.143 0 0 0-.662-1.622 2.334 2.334 0 0 0-1.706-.636v-.013Zm3.316-3.34h-6.675v-.789c0-1.577.379-2.934 1.123-4.004a18.975 18.975 0 0 1 2.988-3.221c.743-.63 1.425-1.33 2.034-2.088a2.659 2.659 0 0 0 .53-1.656 2.428 2.428 0 0 0-1.059-2.075c-.76-.578-1.825-.87-3.16-.87-2.037 0-3.632.526-4.874 1.617a3.084 3.084 0 0 1-3.692.279 3.041 3.041 0 0 1-1.389-2.412 3.027 3.027 0 0 1 1.169-2.524 12.71 12.71 0 0 1 2.487-1.506c1.912-.878 4.18-1.315 6.738-1.315 3.147 0 5.711.7 7.616 2.08 1.984 1.436 2.99 3.436 2.99 5.942a7.868 7.868 0 0 1-.606 3.177 8.681 8.681 0 0 1-1.436 2.295c-.651.713-1.34 1.39-2.063 2.03a14.688 14.688 0 0 0-2.149 2.256 3.32 3.32 0 0 0-.593 2.006l.021.778Zm-5.046-1.577h3.51c.098-.768.385-1.5.834-2.133.7-.921 1.5-1.764 2.384-2.513a24.95 24.95 0 0 0 1.936-1.904 7.162 7.162 0 0 0 1.169-1.877 6.34 6.34 0 0 0 .474-2.548c0-2.004-.766-3.529-2.337-4.67-1.629-1.178-3.875-1.775-6.68-1.775-2.328 0-4.37.397-6.071 1.178-.773.353-1.502.794-2.172 1.315a1.463 1.463 0 0 0-.564 1.22 1.44 1.44 0 0 0 .665 1.149 1.49 1.49 0 0 0 1.777-.137c1.523-1.336 3.518-2.011 5.926-2.011 1.692 0 3.08.402 4.126 1.193.529.38.958.881 1.249 1.46.292.58.438 1.221.425 1.87.01.935-.291 1.848-.858 2.597a16.139 16.139 0 0 1-2.251 2.324 17.582 17.582 0 0 0-2.739 2.94 4.924 4.924 0 0 0-.803 2.322Z" />
  <path fill="#23AA49"
    d="M51.146 30.928a18.193 18.193 0 0 1 2.863-3.08 15.89 15.89 0 0 0 2.143-2.205 3.461 3.461 0 0 0 .699-2.127 3.223 3.223 0 0 0-1.361-2.703c-.91-.69-2.124-1.034-3.643-1.034-2.22 0-4.02.605-5.4 1.815a2.275 2.275 0 0 1-2.736.21 2.255 2.255 0 0 1-1.025-1.786 2.234 2.234 0 0 1 .865-1.866 11.54 11.54 0 0 1 2.329-1.412c1.817-.836 3.953-1.254 6.407-1.252 2.988 0 5.372.643 7.152 1.928 1.78 1.284 2.667 3.053 2.662 5.306a7.053 7.053 0 0 1-.53 2.86 7.877 7.877 0 0 1-1.3 2.088 26.34 26.34 0 0 1-2.003 1.967 15.358 15.358 0 0 0-2.262 2.385 4.123 4.123 0 0 0-.739 2.463h-5.086c-.01-1.43.311-2.616.965-3.557Zm-.72 12.163a2.995 2.995 0 0 1-.901-2.206 2.914 2.914 0 0 1 .9-2.187 3.162 3.162 0 0 1 2.302-.873 3.129 3.129 0 0 1 2.262.873 2.93 2.93 0 0 1 .9 2.187 2.98 2.98 0 0 1-.9 2.206 3.07 3.07 0 0 1-2.262.894 3.144 3.144 0 0 1-2.302-.894Z" />
  <path fill="#00031A"
    d="M52.727 44.774a3.925 3.925 0 0 1-2.85-1.125 3.773 3.773 0 0 1-1.134-2.764 3.685 3.685 0 0 1 1.134-2.74 3.937 3.937 0 0 1 2.858-1.099 3.91 3.91 0 0 1 2.81 1.1 3.676 3.676 0 0 1 1.139 2.75 3.75 3.75 0 0 1-1.133 2.763 3.85 3.85 0 0 1-2.824 1.115Zm-1.74-2.243a2.339 2.339 0 0 0 1.74.666 2.3 2.3 0 0 0 2.208-1.42c.115-.282.17-.586.16-.892a2.131 2.131 0 0 0-.662-1.622 2.322 2.322 0 0 0-1.706-.65 2.4 2.4 0 0 0-1.746.65 2.153 2.153 0 0 0-.662 1.622 2.195 2.195 0 0 0 .668 1.646Zm5.059-7.257H49.37v-.788c0-1.578.376-2.935 1.12-4.005a18.888 18.888 0 0 1 2.988-3.221 15.176 15.176 0 0 0 2.035-2.088c.36-.477.552-1.06.542-1.656a2.433 2.433 0 0 0-1.059-2.077c-.763-.576-1.825-.87-3.16-.87-2.04 0-3.634.525-4.876 1.616a3.082 3.082 0 0 1-3.693.279 3.047 3.047 0 0 1-.987-1.039 3.021 3.021 0 0 1 .767-3.894 12.47 12.47 0 0 1 2.487-1.506c1.913-.881 4.18-1.315 6.742-1.315 3.146 0 5.708.7 7.615 2.077 1.984 1.438 2.988 3.437 2.988 5.945a7.867 7.867 0 0 1-.607 3.176 8.648 8.648 0 0 1-1.433 2.293 26.561 26.561 0 0 1-2.066 2.03 14.613 14.613 0 0 0-2.145 2.259 3.316 3.316 0 0 0-.594 2.006l.01.778ZM51 33.697h3.507c.099-.768.386-1.5.837-2.133.7-.922 1.5-1.766 2.384-2.516a24.617 24.617 0 0 0 1.936-1.901 7.091 7.091 0 0 0 1.168-1.88 6.312 6.312 0 0 0 .474-2.545c0-2.004-.762-3.532-2.336-4.67-1.629-1.178-3.875-1.775-6.677-1.775-2.329 0-4.37.395-6.071 1.178-.774.352-1.503.793-2.172 1.315a1.452 1.452 0 0 0 .1 2.371 1.484 1.484 0 0 0 1.775-.139c1.523-1.333 3.518-2.011 5.928-2.011 1.692 0 3.08.402 4.124 1.196.53.38.958.88 1.25 1.46.291.58.437 1.22.424 1.869.01.936-.292 1.849-.858 2.598a16.163 16.163 0 0 1-2.252 2.324 17.428 17.428 0 0 0-2.736 2.937A4.894 4.894 0 0 0 51 33.697Z" />
</svg>