<svg xmlns="http://www.w3.org/2000/svg" width="155" height="147" fill="none">
  <path fill="#00031A"
    d="m140.143 39.855-2.125-.46-.484-2.108a.161.161 0 0 0-.16-.127.169.169 0 0 0-.162.127l-.484 2.117-2.125.5a.169.169 0 0 0-.128.163.17.17 0 0 0 .037.102.165.165 0 0 0 .093.055l2.125.46.482 2.108a.17.17 0 0 0 .162.127.162.162 0 0 0 .16-.127l.486-2.117 2.125-.5a.164.164 0 0 0 .133-.16.164.164 0 0 0-.133-.16h-.002ZM16.195 70.436l-2.125-.46-.484-2.108a.163.163 0 0 0-.16-.127.169.169 0 0 0-.162.127l-.484 2.117-2.125.5a.168.168 0 0 0-.128.163.16.16 0 0 0 .13.157l2.125.461.482 2.107a.167.167 0 0 0 .264.091.163.163 0 0 0 .058-.091l.486-2.117 2.125-.5a.163.163 0 0 0 .133-.16.162.162 0 0 0-.133-.16h-.002ZM129.41 31.401l-1.1-.238-.248-1.09a.086.086 0 0 0-.084-.067.086.086 0 0 0-.084.067l-.25 1.096-1.099.258a.085.085 0 0 0-.047.136c.012.015.03.025.049.029l1.099.238.248 1.09a.086.086 0 0 0 .084.068.085.085 0 0 0 .084-.068l.25-1.096 1.1-.258a.09.09 0 0 0 .047-.03.092.092 0 0 0 .019-.053.086.086 0 0 0-.068-.082Z" />
  <path fill="#23AA49"
    d="m14.729 11.675.136-3.436a2.45 2.45 0 0 1 1.112-1.955 2.49 2.49 0 0 1 3.208.41 2.456 2.456 0 0 1 .575 2.174c-.085.382-.26.738-.511 1.04l-2.2 2.648-2.32-.881Zm-.942 2.464-2.199 2.649a2.455 2.455 0 0 0-.487 2.194 2.477 2.477 0 0 0 2.664 1.82 2.467 2.467 0 0 0 2.207-2.348l.138-3.435-2.323-.88Z" />
  <path fill="#00031A"
    d="m12.395 12.232 1.08 2.274c.209.44.586.78 1.048.945.462.165.97.14 1.414-.067l2.211-1.035-1.077-2.273c-.21-.441-.587-.781-1.049-.946a1.865 1.865 0 0 0-1.414.066l-2.213 1.037Z" />
  <path fill="#00031A"
    d="M11.697 13.603c.929 0 1.681-.748 1.681-1.67 0-.923-.752-1.67-1.681-1.67s-1.681.747-1.681 1.67c0 .922.752 1.67 1.68 1.67Z" />
  <path fill="#00031A"
    d="m9.176 10.4.795-.893 1.133.996-.795.892-1.133-.996ZM8.773 12.591l.008-1.191 1.514.01-.008 1.191-1.514-.01ZM47.936 86.606l-1.173-.24c.111-.538.217-1.082.32-1.618l1.177.216c-.1.546-.21 1.098-.324 1.642Zm.824-4.6-1.186-.166c.148-.993.274-1.974.378-2.929l1.2.126a82.109 82.109 0 0 1-.392 2.97v-.002Zm.635-5.974-1.2-.072c.06-.992.095-1.985.1-2.944h1.2c-.006.986-.04 2-.1 3.018v-.002Zm-1.167-5.957a41.778 41.778 0 0 0-.264-2.924l1.2-.146c.121.969.213 1.985.27 3.004l-1.206.066Zm-.746-5.81c-.2-.972-.45-1.923-.73-2.829l1.146-.35c.292.94.548 1.927.76 2.936l-1.176.242ZM36.487 59.1c-.354 0-.714-.014-1.072-.04l.09-1.191c.328.026.67.034.982.038.624 0 1.248-.048 1.865-.145l.2 1.175c-.68.107-1.368.16-2.057.157l-.008.006Zm9.248-.397a23.519 23.519 0 0 0-1.316-2.581l1.036-.596c.516.878.977 1.788 1.382 2.722l-1.102.455Zm-13.414-.354a7.566 7.566 0 0 1-2.625-1.872l.895-.794a6.367 6.367 0 0 0 2.213 1.574l-.483 1.092Zm9.256-.323-.504-1.08a9.259 9.259 0 0 0 2.343-1.534l.81.88a10.459 10.459 0 0 1-2.66 1.734h.01Zm1.225-4.303a19.057 19.057 0 0 0-1.961-2.13l.82-.869c.748.7 1.442 1.457 2.075 2.262l-.934.737Zm3.265 0-1.056-.566a20.01 20.01 0 0 0 1.2-2.633l1.125.413a21.2 21.2 0 0 1-1.28 2.778l.01.008Zm-17.919-.062a8.514 8.514 0 0 1-.24-1.086 4.933 4.933 0 0 1 .138-2.184l1.152.331a3.767 3.767 0 0 0-.148 1.053c0 .204.016.409.048.611.047.317.114.63.2.94l-1.15.335Zm10.422-3.84a11.326 11.326 0 0 0-2.323-1.204l-.186-.052.316-1.15.214.06c.932.339 1.818.792 2.637 1.349l-.658.997Zm-7.867-1.069-.625-1.014a5.98 5.98 0 0 1 3.15-.795h.04l-.01 1.192h-.03a4.808 4.808 0 0 0-2.535.61l.01.007Zm17.467-.778-1.18-.22c.18-.942.274-1.897.28-2.854h1.2a17.08 17.08 0 0 1-.31 3.066l.01.008Zm-1.14-5.926a17.906 17.906 0 0 0-.73-2.78l1.134-.397c.34.967.6 1.96.778 2.969l-1.182.208Zm-1.875-5.439c-.446-.863-.942-1.7-1.485-2.508l1-.66a26.446 26.446 0 0 1 1.553 2.626l-1.068.542Zm-3.238-4.867a38.154 38.154 0 0 0-1.952-2.204l.87-.82c.718.75 1.4 1.515 2.013 2.273l-.931.75Zm-4.063-4.267c-.705-.648-1.46-1.301-2.239-1.94l.766-.92c.8.653 1.565 1.32 2.287 1.986l-.814.873Zm-4.578-3.773a78.31 78.31 0 0 0-2.423-1.718l.676-.993a72.177 72.177 0 0 1 2.465 1.75l-.718.96Zm-4.918-3.339a84.655 84.655 0 0 0-2.557-1.527l.6-1.032A91.246 91.246 0 0 1 29 19.355l-.642 1.01Zm-5.17-2.959c-1.627-.851-2.659-1.312-2.668-1.318l.491-1.086c.044.02 1.072.48 2.737 1.35l-.56 1.055Z" />
  <path fill="#fff"
    d="m107.469 47.762-4.838-1.616-.478-13.664c5.913-4.459 2.599-7.654 2.599-7.654l-.252-6.25H80.9c-4.398 25.475 6.785 23.034 6.785 23.034L87.4 46.92l-5.938 2.636.236 10.242h26.589l-.819-12.036Z" />
  <path fill="#00031A"
    d="M108.931 60.394H81.115l-.258-11.216 5.966-2.649.228-4.254a6.142 6.142 0 0 1-4.383-1.739c-3.514-3.334-4.308-10.757-2.359-22.062l.086-.495h24.696l.266 6.611c.66.814.99 1.844.926 2.887-.11 1.776-1.29 3.553-3.509 5.287l.454 12.947 4.822 1.612.881 13.07Zm-26.644-1.192h25.361L106.89 48.2l-4.85-1.62-.495-14.383.247-.187c2.058-1.553 3.199-3.143 3.283-4.6a2.966 2.966 0 0 0-.736-2.152l-.172-.165-.239-5.917H81.407c-2.2 13.2-.09 18.436 2.09 20.503 1.902 1.803 4.04 1.364 4.06 1.358l.769-.166-.344 6.451-5.907 2.624.212 9.257Z" />
  <path fill="#00031A"
    d="M94.336 19.947s-5.05 3.247-13.665 0l-.418 2.991s-3.798-2.687-2.778-7.66c0 0 .511-3.147 5.825-3.756 0 0 2.247-4.568 7.153-2.64 0 0 3.679-2.231 7.255 1.119 0 0 3.167-.102 3.679 2.434 0 0 5.209-.607 6.641 4.17 0 0 .817 6.095-3.577 8.738 0 0-3.168-2.036-4.598 2.228l-1.839.508-.41-2.841s-2.759-.825-3.268-5.29Z" />
  <path fill="#00031A"
    d="M82.127 30.696a3.738 3.738 0 0 1-2.067-.622 3.7 3.7 0 0 1-1.37-1.659 3.673 3.673 0 0 1 .806-4.027 3.743 3.743 0 0 1 4.054-.801c.68.28 1.261.753 1.67 1.36a3.678 3.678 0 0 1-.464 4.666 3.737 3.737 0 0 1-2.63 1.083Zm0-6.596c-.578 0-1.143.17-1.623.489-.48.318-.855.771-1.076 1.302a2.883 2.883 0 0 0 .633 3.161 2.94 2.94 0 0 0 3.183.629c.534-.22.99-.591 1.311-1.068a2.887 2.887 0 0 0-.364-3.663 2.933 2.933 0 0 0-2.064-.85Zm7.97 6.596a3.738 3.738 0 0 1-2.067-.622 3.701 3.701 0 0 1-1.37-1.659 3.672 3.672 0 0 1 .807-4.027 3.744 3.744 0 0 1 4.055-.801c.679.28 1.26.753 1.669 1.36.409.608.627 1.323.627 2.054a3.687 3.687 0 0 1-1.091 2.612 3.736 3.736 0 0 1-2.63 1.083Zm0-6.596c-.577 0-1.142.17-1.622.489-.48.318-.855.771-1.076 1.302a2.883 2.883 0 0 0 .633 3.161 2.94 2.94 0 0 0 3.183.629c.534-.22.99-.591 1.31-1.068a2.888 2.888 0 0 0-.363-3.663 2.933 2.933 0 0 0-2.065-.85Z" />
  <path fill="#00031A"
    d="M82.174 28.371c.507 0 .92-.409.92-.913a.917.917 0 0 0-.92-.914.917.917 0 0 0-.92.914c0 .504.412.913.92.913ZM90.095 28.423c.508 0 .92-.41.92-.914a.916.916 0 0 0-.92-.913.916.916 0 0 0-.92.913c0 .505.413.914.92.914ZM93.356 26.206l4.52-.659.115.786-4.52.659-.115-.786ZM87.246 33.131l-3.46-.355 2.147-6.379.76.252-1.832 5.437 2.467.255-.082.79Zm-2.1-9.42c-.017-.014-1.62-1.258-4.765-.866l-.1-.795c3.509-.435 5.294.977 5.368 1.037l-.506.615.252-.307-.25.315Zm2.444-.102-.6-.516c.024-.028 2.36-2.665 6.186-.278l-.426.673c-3.233-2.016-5.084.034-5.16.121Zm-2.989 12.955a.794.794 0 0 1-.126-.973.797.797 0 0 1 .242-.254 1.929 1.929 0 0 1 1.022-.33c.952-.027 2.211.58 2.799.894a.274.274 0 0 1 .143.208.27.27 0 0 1-.09.235c-.659.576-2.668 1.587-3.99.22Z" />
  <path fill="#23AA49"
    d="M83.698 48.48s.8 9.531 11.595 9.134c0 0 8.896-.894 11.495-10.028 0 0 11.887 2.95 21.559 8.082a14.727 14.727 0 0 1 4.615 3.836 14.61 14.61 0 0 1 2.686 5.348l8.424 28.307-21.391.199-2.499-4.468 3.799 50.638H69.004l-1.4-41.503-17.592-2.185 10.033-31.177a16.993 16.993 0 0 1 3.602-6.227 17.132 17.132 0 0 1 5.866-4.198l14.185-5.759Z" />
  <path fill="#00031A"
    d="M124.629 140.123H68.427l-1.4-41.57-17.804-2.216 10.253-31.87a17.597 17.597 0 0 1 3.728-6.442 17.74 17.74 0 0 1 6.068-4.343l14.954-6.067.068.809c.034.379.91 8.95 10.953 8.59.54-.06 8.541-1.086 10.962-9.597l.158-.556.565.14c.12.03 12.069 3.03 21.695 8.143a15.37 15.37 0 0 1 4.798 3.995 15.238 15.238 0 0 1 2.799 5.562l8.651 29.054-22.543.199-1.345-2.409 3.642 48.578Zm-55.043-1.191h53.752l-3.955-52.701 3.653 6.531 20.239-.198-8.196-27.543a14.07 14.07 0 0 0-2.581-5.138 14.175 14.175 0 0 0-4.428-3.689c-8.321-4.414-18.423-7.236-20.87-7.888a14.064 14.064 0 0 1-6.845 8.243 14.67 14.67 0 0 1-4.998 1.657h-.038c-.226 0-.445.011-.663.011-5.422 0-8.265-2.527-9.704-4.698a11.927 11.927 0 0 1-1.726-4.208l-13.48 5.47a16.533 16.533 0 0 0-5.653 4.048 16.4 16.4 0 0 0-3.471 6.003l-9.816 30.512 17.383 2.158 1.397 41.43Z" />
  <path fill="#23AA49" d="M34.121 80.649h75.568v58.779H34.121v-58.78Z" />
  <path fill="#00031A"
    d="M110.287 140.024H33.519v-59.97h76.768v59.97Zm-75.568-1.191h74.369V81.245H34.719v57.588Z" />
  <path fill="#fff" d="M17.027 96.436h45.581l18.393-15.688H34.02L17.026 96.436Z" />
  <path fill="#00031A"
    d="M62.828 97.032H15.5l18.282-16.88h48.836l-19.79 16.88ZM18.551 95.84h43.833l16.993-14.496H34.254L18.551 95.84Z" />
  <path fill="#00031A" d="M80.7 80.649h28.987v58.779H80.699v-58.78Z" />
  <path fill="#fff" d="M121.984 96.436H90.397L80.8 80.748h28.988l12.195 15.688Z" />
  <path fill="#00031A"
    d="M123.204 97.032H90.058l-10.324-16.88h30.354l13.116 16.88Zm-32.47-1.192h30.027l-11.273-14.496H81.865l8.869 14.496Z" />
  <path fill="#fff"
    d="M34.12 116.79s-5.5 3.313-5.24 9.333a6.412 6.412 0 0 0 1.168 3.418c1.373 1.944 4.484 4.984 10.67 5.519 0 0 2.798.397 1.998-1.589 0 0 2-.993 1.2-2.78 0 0 1.799-1.589.8-2.979 0 0 1.399-1.986.2-2.78-1.2-.794-6.598-1.787-6.598-1.787s3.998-.795 3.399-2.582c-.6-1.787-7.597-1.523-7.597-1.523v-2.25Z" />
  <path fill="#00031A"
    d="M41.264 135.691a4.346 4.346 0 0 1-.614-.04c-6.493-.566-9.736-3.858-11.091-5.772a6.973 6.973 0 0 1-1.276-3.734c-.274-6.299 5.29-9.73 5.528-9.865l.91-.548v2.697c2.199-.04 6.945.097 7.566 1.946a1.643 1.643 0 0 1-.146 1.39c-.307.528-.897.933-1.519 1.235 1.695.373 3.854.921 4.626 1.432a1.624 1.624 0 0 1 .72 1.078c.156.822-.272 1.73-.552 2.21.554 1.17-.152 2.409-.8 3.122.386 1.342-.437 2.359-1.187 2.893a1.481 1.481 0 0 1-.26 1.257c-.464.584-1.307.699-1.905.699Zm-7.743-17.723c-1.48 1.207-4.218 4.017-4.04 8.126a5.812 5.812 0 0 0 1.057 3.1c1.238 1.745 4.21 4.752 10.232 5.272h.032c.534.073 1.25 0 1.42-.211.07-.087.045-.3-.063-.568l-.2-.508.494-.244c.15-.078 1.464-.795.92-2.006l-.178-.397.328-.288c.012-.012 1.381-1.253.71-2.184l-.25-.348.242-.345c.265-.382.655-1.164.563-1.639a.426.426 0 0 0-.2-.303c-.8-.531-4.334-1.323-6.375-1.698l-3.06-.564 3.052-.606c.916-.183 2.515-.723 2.905-1.39a.468.468 0 0 0 .042-.419c-.268-.804-3.909-1.233-6.997-1.116l-.622.024-.012-1.688Z" />
  <path fill="#fff"
    d="m143.357 93.016-20.074.2 2.357 6.606-30.485 31.254s-6.997-4.635-11.147-4.964a1.516 1.516 0 0 0-1.632 1.477c-.014 1.104.502 2.721 2.945 4.339 0 0-3.798 2.891-6.495 4.369a2.502 2.502 0 0 0-1.093 1.144 2.483 2.483 0 0 0-.184 1.566c.253 1.095 1.265 2.185 4.302 2.161 0 0 0 3.112 4.048 2.25 0 0 1.157 2.873 4.628 1.436 0 0 .97 1.912 5.496-.86l46.094-31.751a9.251 9.251 0 0 0 3.428-4.395 9.19 9.19 0 0 0 .269-5.554l-2.457-9.278Z" />
  <path fill="#00031A"
    d="M92.007 146.103c-.28.002-.56-.034-.831-.108a2.163 2.163 0 0 1-.824-.429c-1.132.398-2.157.398-3.057.02a3.747 3.747 0 0 1-1.72-1.493c-1.365.214-2.446 0-3.22-.614a3.027 3.027 0 0 1-1.031-1.713c-3.115-.114-4.097-1.466-4.362-2.616a3.076 3.076 0 0 1 .222-1.941 3.103 3.103 0 0 1 1.349-1.423c1.965-1.08 4.576-2.956 5.772-3.838-2.098-1.621-2.546-3.241-2.532-4.357a2.088 2.088 0 0 1 .69-1.521 2.116 2.116 0 0 1 1.588-.542c3.71.286 9.416 3.773 11.013 4.782l29.883-30.637-2.513-7.046 21.38-.21 2.576 9.73a9.8 9.8 0 0 1-.291 5.91 9.87 9.87 0 0 1-3.643 4.682l-46.109 31.773h-.014c-1.729 1.058-3.18 1.591-4.326 1.591Zm-.951-1.512c.248.352 1.527.817 4.634-1.084l46.082-31.753a8.675 8.675 0 0 0 3.201-4.115 8.616 8.616 0 0 0 .258-5.194l-2.339-8.829-18.766.187 2.199 6.168-31.091 31.876-.416-.276c-.068-.044-6.915-4.55-10.86-4.856a.907.907 0 0 0-.688.237.89.89 0 0 0-.297.653c-.018 1.338.908 2.665 2.679 3.836l.698.463-.668.507c-.156.119-3.873 2.937-6.57 4.418a1.888 1.888 0 0 0-.982 2.055c.265 1.144 1.516 1.716 3.713 1.698h.6v.596a1.973 1.973 0 0 0 .672 1.39c.562.445 1.453.54 2.653.286l.494-.105.188.466c.27.572.738 1.029 1.319 1.287.696.286 1.543.224 2.521-.179l.564-.234.202.502ZM87.352 76.027l4.796-10.326 1.09.5-4.797 10.326-1.09-.5ZM76.898 60.791h1.2v15.49h-1.2V60.79ZM62.352 66.157l1.12-.427 3.599 9.334-1.12.426-3.6-9.333Z" />
</svg>