<svg xmlns="http://www.w3.org/2000/svg" viewBox="0 0 170 50">
  <path
    d="M71.54 12.41a11.12 11.12 0 0 1 5.26 1.19 8.45 8.45 0 0 1 3.47 3.4 9.69 9.69 0 0 1 1.25 5 9.77 9.77 0 0 1-1.25 5 8.29 8.29 0 0 1-3.5 3.36 10.94 10.94 0 0 1-5.23 1.2h-7.13v-19Zm-.3 15a5.6 5.6 0 0 0 4.1-1.41 5.46 5.46 0 0 0 1.46-4.07 5.56 5.56 0 0 0-1.46-4.09 5.53 5.53 0 0 0-4.1-1.46h-2.19v11.05Zm10.86-3.56a9.16 9.16 0 0 1 .87-4.1A6.7 6.7 0 0 1 85.38 17a6.28 6.28 0 0 1 3.39-.95 5.75 5.75 0 0 1 2.79.65 4.78 4.78 0 0 1 1.87 1.71v-2.1h4.64v15.13h-4.64V29.3a4.92 4.92 0 0 1-1.9 1.7 5.64 5.64 0 0 1-2.79.65 6.14 6.14 0 0 1-3.36-.94A6.86 6.86 0 0 1 83 28a9.31 9.31 0 0 1-.9-4.15Zm11.33 0a3.76 3.76 0 0 0-1-2.74 3.1 3.1 0 0 0-2.33-1 3.16 3.16 0 0 0-2.36 1 3.69 3.69 0 0 0-1 2.71 3.88 3.88 0 0 0 1 2.76 3.16 3.16 0 0 0 2.36 1 3.1 3.1 0 0 0 2.33-1 3.75 3.75 0 0 0 1-2.7Zm13.06 7.78A8.7 8.7 0 0 1 103 31a6 6 0 0 1-2.44-1.85 4.92 4.92 0 0 1-1-2.65h4.58a1.76 1.76 0 0 0 .74 1.27 2.54 2.54 0 0 0 1.6.49 2.24 2.24 0 0 0 1.32-.33 1 1 0 0 0 .49-.89 1 1 0 0 0-.68-.95 12.05 12.05 0 0 0-2.19-.7 23.29 23.29 0 0 1-2.71-.79 4.86 4.86 0 0 1-1.87-1.33 3.62 3.62 0 0 1-.79-2.46 4.15 4.15 0 0 1 .71-2.36 4.77 4.77 0 0 1 2.11-1.71 8.13 8.13 0 0 1 3.34-.62 6.62 6.62 0 0 1 4.47 1.41 5.49 5.49 0 0 1 1.9 3.74h-4.29a1.8 1.8 0 0 0-.7-1.25 2.34 2.34 0 0 0-1.52-.46 2.12 2.12 0 0 0-1.25.32 1 1 0 0 0-.43.84 1 1 0 0 0 .68 1 11.41 11.41 0 0 0 2.17.65 21.25 21.25 0 0 1 2.73.87 4.48 4.48 0 0 1 1.85 1.35 3.78 3.78 0 0 1 .84 2.5 4 4 0 0 1-.76 2.38 4.87 4.87 0 0 1-2.14 1.63 8.09 8.09 0 0 1-3.27.56Zm14 0A8.7 8.7 0 0 1 117 31a6 6 0 0 1-2.44-1.85 4.83 4.83 0 0 1-1-2.65h4.58a1.72 1.72 0 0 0 .73 1.27 2.56 2.56 0 0 0 1.6.49 2.27 2.27 0 0 0 1.33-.33 1.07 1.07 0 0 0 .49-.89 1 1 0 0 0-.68-.95 12.5 12.5 0 0 0-2.2-.7 23.89 23.89 0 0 1-2.71-.79 4.86 4.86 0 0 1-1.87-1.33 3.67 3.67 0 0 1-.79-2.46 4.15 4.15 0 0 1 .71-2.36 4.83 4.83 0 0 1 2.11-1.71 8.13 8.13 0 0 1 3.34-.62 6.58 6.58 0 0 1 4.47 1.41 5.49 5.49 0 0 1 1.9 3.74h-4.28a1.85 1.85 0 0 0-.71-1.25 2.34 2.34 0 0 0-1.52-.46 2.06 2.06 0 0 0-1.24.32 1 1 0 0 0-.44.84 1 1 0 0 0 .68 1 11.41 11.41 0 0 0 2.17.65 22 22 0 0 1 2.74.87 4.45 4.45 0 0 1 1.84 1.35 3.78 3.78 0 0 1 .84 2.5 4 4 0 0 1-.76 2.38 4.87 4.87 0 0 1-2.14 1.63 8.06 8.06 0 0 1-3.23.56Zm23.33-15.35-9.49 22.31h-5l3.47-7.7-6.16-14.61h5.18l3.5 9.46 3.47-9.46Zm7.48 15.35a8.45 8.45 0 0 1-4-.95 7.06 7.06 0 0 1-2.77-2.68 8.19 8.19 0 0 1-1-4.12 8.05 8.05 0 0 1 1-4.1 7.08 7.08 0 0 1 2.84-2.78 9 9 0 0 1 8 0 7.08 7.08 0 0 1 2.82 2.74 8.05 8.05 0 0 1 1 4.1 8 8 0 0 1-1 4.16 7.08 7.08 0 0 1-2.85 2.71 8.45 8.45 0 0 1-4.01.95Zm0-4a3 3 0 0 0 2.25-1 3.85 3.85 0 0 0 .95-2.79 4 4 0 0 0-.92-2.8 3.07 3.07 0 0 0-4.48 0 4 4 0 0 0-.89 2.8 4.06 4.06 0 0 0 .87 2.79 2.88 2.88 0 0 0 2.22 1Zm13.93-8.81a6 6 0 0 1 2-1.95 5.15 5.15 0 0 1 2.71-.73v4.91h-1.27a3.86 3.86 0 0 0-2.61.76 3.24 3.24 0 0 0-.86 2.6v7h-4.64v-15.1h4.64v2.52Z"
    fill="#00031A" />
  <path
    d="M32 16.56v-.14.14ZM58.56 7v7.85H51.96a2.25 2.25 0 0 0-1 .23A24.17 24.17 0 0 1 40 17.44a49.62 49.62 0 0 1-6.79-.92c-.44-.06-1-.39-1.28.22v.45c-.2 1.38-.54 3.71-.7 4.78v.47l-.26 1.85c1 .09 2 .15 3 .26a17 17 0 0 1 5.31 1.23c1.67.77 2.15 1.1 1.9 3.49a29.72 29.72 0 0 1-2.56 8.37l-.38.89c2-.53 3.94-.86 5.65.51l-9.19 3.84-.15-.58-.67.05c.16-1.26.33-2.47.47-3.68.23-2.11.42-4.22.69-6.33a6 6 0 0 1 .54-1.34 4.52 4.52 0 0 0-.51-.22 1.33 1.33 0 0 0-.4 0c-3.39.23-6.78.46-10.17.72a1.55 1.55 0 0 0-.85.36c-2.53 2.13-5 4.29-7.57 6.41a7 7 0 0 1-1.89 1.1Q9.24 41.19 4.26 43a.77.77 0 0 0-.59.91c.05 1.38 0 2.77.09 4.16A1.09 1.09 0 0 1 3 49.28c-.33.15-.64.34-1 .54l-.66.18-.14-.66-.75-5.5-.17-1.23c-.11-.73-.2-1.45-.28-2.18a.85.85 0 0 1 .42-.66c.92-.49 1.87-.9 2.8-1.35a1.79 1.79 0 0 0 .78-.58l5.37-2.29c.18-.1.37-.18.56-.27 0 0 1.48-.72 1.51-.72a2.08 2.08 0 0 0 1.23-1.36l.46-.61c.83-.82 1-2.28 1.84-3.35l1.07-2a1.23 1.23 0 0 0-.07-.79c-.17-.29-.35-.57-.53-.85a3.55 3.55 0 0 1-.52-2.69q3.34-4.75 6.65-9.55a1.05 1.05 0 0 0 0-.2l-3.18-2a8.18 8.18 0 0 1-.76-.48 1 1 0 0 0-1.26 0 33 33 0 0 0-6.63 4.7 1.31 1.31 0 0 1 0 1.23 4.59 4.59 0 0 0-.18.56c0 .17-.12.31-.33.32s-.18.14-.24.24a1.33 1.33 0 0 1-.47.58c-.13.07-.36.13-.37 0 0-.32-.34-.45-.47-.71a.51.51 0 0 1-.06-.25c0-.2-.25-.37-.35-.59a.52.52 0 0 1 0-.4 3.72 3.72 0 0 1 .86-1.51l6.27-7.58a1.68 1.68 0 0 1 2-.49c4.53 1 9.08 2 13.6 3a8.73 8.73 0 0 1 2.15.94c1.51.81 2.94 1.77 4.5 2.46a10.61 10.61 0 0 0 3.57.94c2.07.12 4.15 0 6.23-.07a2.13 2.13 0 0 0 .34-.08V7.16c0-.48.14-.64.63-.63h9.92a4.35 4.35 0 0 1 1.22.47Z"
    fill="#199647" />
  <path
    d="M31.38 3.43c-.85-.36-3.6-1.35-4.4-1.69l.14-.56c.65.13 3.27.86 3.91 1 .48.13.86.13 1.09-.4.19.08.27.49.53.6l-.37-.63C33.18 1.2 34.06.61 35 .06a.84.84 0 0 1 .64 0 19.3 19.3 0 0 1 5.24 3.2 2.12 2.12 0 0 1 .57 1 5.9 5.9 0 0 1-.26 3.27c0 .14-.2.37-.24.36-.47-.14-.41.26-.5.47a4.72 4.72 0 0 1-6.13 2.9c-3-1.07-4.36-3.36-3.64-6.17a12.12 12.12 0 0 1 .74-1.71ZM8.63 14v-.07Zm-1 3.45v-.05Z"
    fill="#199647"
  />
</svg>