<svg xmlns="http://www.w3.org/2000/svg" width="170" height="50" fill="none">
  <path fill="#000"
    d="M71.54 12.408c2.007 0 3.76.398 5.26 1.193s2.657 1.915 3.47 3.361c.831 1.428 1.247 3.082 1.247 4.961 0 1.862-.416 3.515-1.247 4.96-.813 1.447-1.98 2.567-3.497 3.362-1.5.796-3.244 1.193-5.232 1.193h-7.13v-19.03h7.13Zm-.297 15.018c1.753 0 3.117-.479 4.093-1.437.976-.957 1.464-2.313 1.464-4.066 0-1.753-.488-3.117-1.464-4.093s-2.34-1.464-4.093-1.464h-2.196v11.06h2.196ZM82.101 23.848c0-1.554.29-2.919.868-4.094.596-1.174 1.4-2.078 2.412-2.71 1.012-.633 2.142-.95 3.389-.95 1.066 0 1.997.218 2.792.651.813.434 1.437 1.003 1.87 1.708v-2.141h4.636v15.126h-4.635v-2.141c-.452.704-1.085 1.274-1.898 1.707-.795.434-1.726.651-2.792.651a6.216 6.216 0 0 1-3.362-.949c-1.012-.65-1.816-1.563-2.412-2.738-.579-1.192-.868-2.566-.868-4.12Zm11.332.027c0-1.157-.326-2.07-.976-2.738a3.084 3.084 0 0 0-2.332-1.003c-.921 0-1.707.334-2.358 1.003-.633.65-.949 1.554-.949 2.71 0 1.157.316 2.08.949 2.766.65.669 1.437 1.003 2.358 1.003.922 0 1.7-.334 2.332-1.003.65-.669.976-1.581.976-2.738ZM106.491 31.655c-1.319 0-2.494-.226-3.524-.678-1.03-.451-1.844-1.066-2.44-1.843a4.955 4.955 0 0 1-1.003-2.657h4.581c.055.524.299.95.732 1.274.434.326.967.488 1.6.488.578 0 1.021-.108 1.328-.325.325-.235.488-.533.488-.895 0-.433-.226-.75-.678-.948-.452-.217-1.183-.452-2.196-.705-1.084-.253-1.987-.515-2.71-.786a4.867 4.867 0 0 1-1.871-1.329c-.524-.614-.786-1.436-.786-2.466 0-.868.235-1.654.705-2.359.488-.723 1.193-1.292 2.114-1.708.94-.415 2.052-.623 3.335-.623 1.897 0 3.388.47 4.473 1.41 1.102.94 1.734 2.186 1.897 3.74h-4.283c-.072-.524-.307-.94-.705-1.247-.379-.307-.885-.46-1.518-.46-.542 0-.958.108-1.247.325a.962.962 0 0 0-.434.84c0 .434.226.76.678.976.47.217 1.193.434 2.169.65 1.12.29 2.033.579 2.738.868.705.271 1.319.723 1.843 1.356.542.614.822 1.445.84 2.494a3.99 3.99 0 0 1-.759 2.385c-.488.687-1.201 1.229-2.141 1.627-.922.397-1.997.596-3.226.596ZM120.523 31.655c-1.32 0-2.494-.226-3.524-.678-1.031-.451-1.844-1.066-2.44-1.843a4.947 4.947 0 0 1-1.003-2.657h4.581c.054.524.298.95.732 1.274.434.326.967.488 1.599.488.579 0 1.022-.108 1.329-.325.325-.235.488-.533.488-.895 0-.433-.226-.75-.678-.948-.452-.217-1.184-.452-2.196-.705-1.084-.253-1.988-.515-2.711-.786a4.87 4.87 0 0 1-1.87-1.329c-.524-.614-.786-1.436-.786-2.466 0-.868.235-1.654.705-2.359.488-.723 1.192-1.292 2.114-1.708.94-.415 2.051-.623 3.334-.623 1.898 0 3.389.47 4.473 1.41 1.103.94 1.735 2.186 1.898 3.74h-4.283c-.073-.524-.307-.94-.705-1.247-.38-.307-.886-.46-1.518-.46-.542 0-.958.108-1.247.325a.962.962 0 0 0-.434.84c0 .434.226.76.678.976.47.217 1.193.434 2.169.65 1.12.29 2.033.579 2.737.868.705.271 1.32.723 1.844 1.356.542.614.822 1.445.84 2.494a3.99 3.99 0 0 1-.759 2.385c-.488.687-1.202 1.229-2.141 1.627-.922.397-1.997.596-3.226.596ZM143.853 16.312l-9.488 22.31h-4.988l3.47-7.699-6.154-14.611h5.178l3.497 9.46 3.47-9.46h5.015ZM151.33 31.655c-1.482 0-2.819-.316-4.012-.949a7.061 7.061 0 0 1-2.792-2.71c-.669-1.175-1.003-2.549-1.003-4.121 0-1.554.343-2.919 1.03-4.093a6.964 6.964 0 0 1 2.819-2.738c1.193-.633 2.53-.95 4.012-.95 1.482 0 2.82.317 4.012.95a6.967 6.967 0 0 1 2.82 2.738c.686 1.174 1.03 2.539 1.03 4.093 0 1.554-.353 2.928-1.058 4.12a6.965 6.965 0 0 1-2.846 2.711c-1.193.633-2.53.949-4.012.949Zm0-4.012c.886 0 1.636-.325 2.25-.976.633-.65.949-1.581.949-2.792 0-1.21-.307-2.142-.922-2.792-.596-.65-1.337-.976-2.223-.976-.903 0-1.653.325-2.25.976-.596.632-.894 1.563-.894 2.792 0 1.21.289 2.142.867 2.792.597.65 1.338.976 2.223.976ZM165.256 18.833a5.986 5.986 0 0 1 2.033-1.952c.813-.488 1.717-.732 2.711-.732v4.907h-1.274c-1.157 0-2.024.253-2.602.759-.579.488-.868 1.355-.868 2.602v7.021h-4.635V16.312h4.635v2.52Z" />
  <path fill="#199647" d="m31.981 16.558.02-.138c-.006.04-.014.089-.02.138Z" />
  <path fill="#199647"
    d="M58.56 6.972v7.844c-.28 0-.529 0-.775-.002-1.944-.002-3.887-.016-5.828.002a2.328 2.328 0 0 0-.989.238c-3.442 1.738-7.163 2.37-10.938 2.388-2.26.01-4.521-.61-6.787-.919-.441-.06-.964-.395-1.288.22l-.01.065a.055.055 0 0 0-.003.018l-.024.173c-.006.033-.01.067-.015.102l-.016.106c-.201 1.38-.54 3.71-.695 4.784l-.039.277-.015.106v.009l-.009.047-.005.041-.262 1.852c1.026.085 2.01.145 2.986.253 1.817.201 3.623.463 5.307 1.235 1.678.77 2.158 1.102 1.905 3.485-.313 2.946-1.422 5.67-2.563 8.376-.097.229-.194.457-.374.886 2.032-.532 3.935-.858 5.642.514L34.7 42.877l-.152-.581-.667.059c.163-1.267.332-2.472.467-3.682.236-2.11.423-4.225.694-6.33.065-.501.375-.972.537-1.371-.12-.056-.305-.162-.504-.226-.124-.04-.27-.03-.407-.021-3.39.23-6.78.457-10.17.711a1.609 1.609 0 0 0-.852.364c-2.527 2.128-5.022 4.293-7.563 6.406a6.77 6.77 0 0 1-1.89 1.1 570.868 570.868 0 0 1-9.93 3.67c-.493.177-.61.43-.592.912.05 1.384.018 2.774.093 4.158.035.63-.174.998-.73 1.238-.335.143-.647.335-1.022.532L1.336 50l-.14-.661L.45 43.84.28 42.606V42.6a50.07 50.07 0 0 1-.278-2.184c-.023-.21.21-.553.416-.661.917-.482 1.87-.898 2.807-1.344.263-.124.518-.267.75-.575l5.366-2.282c.18-.1.37-.186.556-.276.016-.008 1.483-.722 1.514-.715v.002c.53-.282 1.04-.612 1.227-1.367l.46-.605c.83-.819.991-2.285 1.844-3.356l1.067-2.042c.038-.26.06-.59-.064-.798a21.13 21.13 0 0 0-.538-.85 3.56 3.56 0 0 1-.52-2.688c2.234-3.17 4.442-6.361 6.653-9.549.022-.032.015-.086.033-.204-1.044-.66-2.115-1.333-3.185-2.007-.254-.16-.523-.3-.76-.481-.419-.32-.786-.312-1.26-.048-2.393 1.335-4.644 2.84-6.628 4.696.174.38.216.787-.015 1.234-.089.173-.125.374-.185.563-.052.163-.121.308-.328.314-.154.003-.182.142-.24.242-.126.22-.24.45-.472.58-.127.069-.36.131-.371-.015-.027-.32-.341-.456-.472-.712a.504.504 0 0 1-.058-.248c.003-.199-.25-.376-.348-.594-.065-.143-.098-.255-.055-.399.17-.58.465-1.078.869-1.506l6.337-7.454c.518-.658 1.144-.677 1.953-.494 4.525 1.025 9.072 1.955 13.6 2.975.75.168 1.461.57 2.15.94 1.506.805 2.94 1.765 4.494 2.458 1.115.497 2.365.863 3.575.937 2.065.126 4.147-.026 6.221-.064.088 0 .175-.04.344-.082v-1.158c0-1.873.014-3.746-.009-5.618-.005-.481.142-.64.63-.638 3.306.016 6.615-.008 9.922.024.413.003.822.263 1.279.42h-.001Z" />
  <path fill="#199647"
    d="M31.383 3.433c-.848-.361-3.604-1.352-4.399-1.69.02-.074.114-.484.133-.558.651.122 3.274.857 3.912 1.031.482.132.856.135 1.095-.398.182.08.266.49.529.605a183.89 183.89 0 0 1-.378-.634c.906-.592 1.781-1.183 2.683-1.73.155-.095.449-.063.638.014 1.92.776 3.661 1.862 5.241 3.193.285.239.476.664.571 1.039.28 1.108.077 2.201-.26 3.27-.044.14-.197.379-.236.367-.468-.146-.414.254-.5.469-1.009 2.57-3.559 3.827-6.131 2.9-2.97-1.07-4.362-3.36-3.644-6.17.145-.566.469-1.087.745-1.708ZM8.632 14.023l-.027.036H8.58l.017-.07.035.034ZM7.655 17.474c-.011.011-.021.024-.031.036l.025-.047.006.01Z" />
</svg>