<svg width="24" height="24" viewBox="0 0 24 24" fill="none" xmlns="http://www.w3.org/2000/svg">
  <path
    d="M14.2548 5.95782C12.3455 6.73691 8.52705 8.34956 2.79935 10.7955C1.86929 11.1581 1.38124 11.5129 1.33826 11.8595C1.25232 12.5255 2.23149 12.7328 3.45929 13.1249C4.46302 13.4445 5.81361 13.8185 6.51345 13.8333C7.15191 13.8468 7.86097 13.5895 8.64369 13.0617C13.9969 9.52075 14.133 10.4708 14.133 10.4708C14.2496 10.5707 14.1092 10.7991 14.0969 10.8499C14.0018 11.2565 12.3056 12.9603 12.0171 13.2549C10.9121 14.3804 9.65356 15.0692 11.5935 16.3222C13.2725 17.4065 14.2486 18.098 15.9767 19.2093C17.0818 19.9192 17.9474 20.7612 19.0892 20.6582C19.6141 20.611 20.1574 20.1271 20.4306 18.6839C21.0813 15.2729 22.3613 7.88282 22.656 4.83748C22.6836 4.57086 22.6499 4.22931 22.6253 4.07945C22.5977 3.92944 22.5424 3.71578 22.346 3.5578C22.1096 3.37047 21.7474 3.33105 21.5847 3.33361C20.845 3.3467 19.7123 3.73309 14.2548 5.95782Z"
    fill="currentColor" />
</svg>
  